<svg xmlns="http://www.w3.org/2000/svg" xmlns:xlink="http://www.w3.org/1999/xlink" width="2048" zoomAndPan="magnify" viewBox="0 0 1536 1535.999932" height="2048" preserveAspectRatio="xMidYMid meet" version="1.0"><defs><g/><clipPath id="e3431ca9b2"><path d="M 0.375 0 L 1536 0 L 1536 1535.625 L 0.375 1535.625 Z M 0.375 0 " clip-rule="nonzero"/></clipPath><clipPath id="002240321d"><path d="M 768.1875 0 C 344.136719 0 0.375 343.761719 0.375 767.8125 C 0.375 1191.863281 344.136719 1535.625 768.1875 1535.625 C 1192.238281 1535.625 1536 1191.863281 1536 767.8125 C 1536 343.761719 1192.238281 0 768.1875 0 Z M 768.1875 0 " clip-rule="nonzero"/></clipPath><clipPath id="43f37c51a4"><path d="M 0.375 0 L 1536 0 L 1536 1535.625 L 0.375 1535.625 Z M 0.375 0 " clip-rule="nonzero"/></clipPath><clipPath id="4da44d20d4"><path d="M 768.1875 0 C 344.136719 0 0.375 343.761719 0.375 767.8125 C 0.375 1191.863281 344.136719 1535.625 768.1875 1535.625 C 1192.238281 1535.625 1536 1191.863281 1536 767.8125 C 1536 343.761719 1192.238281 0 768.1875 0 Z M 768.1875 0 " clip-rule="nonzero"/></clipPath><clipPath id="3527feeb95"><rect x="0" width="1536" y="0" height="1536"/></clipPath><clipPath id="94271aee1f"><rect x="0" width="1406" y="0" height="979"/></clipPath></defs><g clip-path="url(#e3431ca9b2)"><g clip-path="url(#002240321d)"><g transform="matrix(1, 0, 0, 1, 0, -0.000000000000122336)"><g clip-path="url(#3527feeb95)"><g clip-path="url(#43f37c51a4)"><g clip-path="url(#4da44d20d4)"><path fill="#7a1f28" d="M 0.375 0 L 1536 0 L 1536 1535.625 L 0.375 1535.625 Z M 0.375 0 " fill-opacity="1" fill-rule="nonzero"/></g></g></g></g><path stroke-linecap="butt" transform="matrix(0.75, 0, 0, 0.75, 0.375034, -0.00002)" fill="none" stroke-linejoin="miter" d="M 1023.749977 0.0000266667 C 458.348923 0.0000266667 -0.0000450905 458.348995 -0.0000450905 1023.750049 C -0.0000450905 1589.151103 458.348923 2047.500071 1023.749977 2047.500071 C 1589.151031 2047.500071 2047.499999 1589.151103 2047.499999 1023.750049 C 2047.499999 458.348995 1589.151031 0.0000266667 1023.749977 0.0000266667 Z M 1023.749977 0.0000266667 " stroke="#000000" stroke-width="24" stroke-opacity="1" stroke-miterlimit="4"/></g></g><g transform="translate(768, 768) scale(0.88) translate(-789, -760.9) matrix(1, 0, 0, 1, 84, 278)"><g clip-path="url(#94271aee1f)"><g fill="#fff1d5" fill-opacity="1"><g transform="translate(16.744368, 781.924283)"><g><path d="M 260.0625 -469.28125 C 258.757812 -400.195312 260.0625 -331.269531 263.96875 -262.5 C 267.882812 -193.738281 274.078125 -125.46875 282.546875 -57.6875 C 284.503906 -45.300781 281.570312 -35.195312 273.75 -27.375 C 268.53125 -20.207031 260.054688 -15.972656 248.328125 -14.671875 L 248.328125 -9.78125 C 250.285156 2.601562 247.351562 12.707031 239.53125 20.53125 C 232.363281 29 222.585938 33.234375 210.203125 33.234375 L 209.21875 33.234375 C 206.613281 38.453125 203.351562 43.34375 199.4375 47.90625 C 195.53125 52.46875 190.644531 56.378906 184.78125 59.640625 C 173.050781 65.503906 160.015625 68.4375 145.671875 68.4375 C 119.597656 68.4375 97.4375 59.3125 79.1875 41.0625 C 72.675781 37.800781 67.140625 33.890625 62.578125 29.328125 C 48.890625 16.941406 40.085938 2.929688 36.171875 -12.703125 C 32.265625 -28.347656 29.660156 -43.015625 28.359375 -56.703125 C 28.359375 -60.617188 28.03125 -63.550781 27.375 -65.5 C 22.8125 -105.914062 19.222656 -144.535156 16.609375 -181.359375 C 14.003906 -218.179688 13.03125 -253.539062 13.6875 -287.4375 L 13.6875 -306.984375 C 13.6875 -321.972656 13.847656 -336.960938 14.171875 -351.953125 C 14.503906 -366.953125 15.644531 -381.945312 17.59375 -396.9375 C 20.207031 -423.65625 28.679688 -445.164062 43.015625 -461.46875 C 44.972656 -463.414062 46.273438 -465.039062 46.921875 -466.34375 C 41.710938 -468.957031 34.054688 -473.519531 23.953125 -480.03125 C 13.847656 -486.550781 7.164062 -496.003906 3.90625 -508.390625 C -0.652344 -527.285156 4.882812 -548.140625 20.53125 -570.953125 C 23.789062 -574.867188 27.050781 -578.617188 30.3125 -582.203125 C 33.570312 -585.785156 37.15625 -589.207031 41.0625 -592.46875 C 42.363281 -597.03125 44.316406 -601.425781 46.921875 -605.65625 C 49.535156 -609.894531 52.144531 -614.296875 54.75 -618.859375 C 63.875 -630.597656 73.648438 -640.378906 84.078125 -648.203125 C 85.378906 -649.503906 86.84375 -650.804688 88.46875 -652.109375 C 90.101562 -653.410156 91.898438 -654.710938 93.859375 -656.015625 C 122.535156 -674.921875 150.234375 -684.375 176.953125 -684.375 C 186.734375 -684.375 195.859375 -683.394531 204.328125 -681.4375 C 242.785156 -671.65625 268.207031 -649.492188 280.59375 -614.953125 C 284.5 -603.867188 284.660156 -592.625 281.078125 -581.21875 C 277.492188 -569.8125 270.160156 -560.203125 259.078125 -552.390625 C 257.773438 -551.734375 256.304688 -550.914062 254.671875 -549.9375 C 253.046875 -548.957031 251.257812 -547.816406 249.3125 -546.515625 C 248.65625 -536.085938 245.066406 -526.640625 238.546875 -518.171875 C 239.847656 -515.554688 240.828125 -512.78125 241.484375 -509.84375 C 242.140625 -506.914062 242.46875 -503.820312 242.46875 -500.5625 L 242.46875 -498.609375 C 243.769531 -497.960938 245.234375 -497.148438 246.859375 -496.171875 C 248.492188 -495.191406 249.960938 -494.050781 251.265625 -492.75 C 257.773438 -484.925781 260.707031 -477.101562 260.0625 -469.28125 Z M 68.4375 -564.109375 C 69.738281 -559.546875 72.992188 -555.3125 78.203125 -551.40625 C 83.421875 -547.5 88.3125 -544.890625 92.875 -543.578125 C 100.050781 -540.972656 107.382812 -539.019531 114.875 -537.71875 C 122.375 -536.414062 130.035156 -535.765625 137.859375 -535.765625 C 146.984375 -535.765625 156.429688 -537.226562 166.203125 -540.15625 C 175.984375 -543.09375 183.804688 -547.820312 189.671875 -554.34375 C 207.921875 -558.25 225.191406 -566.066406 241.484375 -577.796875 C 245.390625 -581.054688 248.644531 -584.96875 251.25 -589.53125 C 253.863281 -594.09375 254.191406 -598.984375 252.234375 -604.203125 C 247.671875 -617.234375 240.5 -627.492188 230.71875 -634.984375 C 220.945312 -642.484375 209.546875 -647.863281 196.515625 -651.125 C 181.523438 -655.039062 166.695312 -654.71875 152.03125 -650.15625 C 137.363281 -645.59375 123.515625 -638.75 110.484375 -629.625 C 109.171875 -628.96875 107.210938 -627.335938 104.609375 -624.734375 C 94.835938 -618.210938 86.691406 -610.066406 80.171875 -600.296875 C 76.910156 -595.734375 73.648438 -590.191406 70.390625 -583.671875 C 67.128906 -577.148438 66.476562 -570.628906 68.4375 -564.109375 Z M 133.9375 -540.65625 C 121.550781 -541.957031 110.472656 -544.238281 100.703125 -547.5 C 94.835938 -549.445312 88.644531 -553.03125 82.125 -558.25 C 78.21875 -561.507812 76.265625 -564.929688 76.265625 -568.515625 C 76.265625 -572.097656 77.238281 -576.171875 79.1875 -580.734375 C 83.101562 -587.898438 87.34375 -594.09375 91.90625 -599.3125 C 87.34375 -588.226562 87.503906 -577.796875 92.390625 -568.015625 C 97.273438 -558.242188 106.890625 -551.726562 121.234375 -548.46875 C 132.316406 -546.519531 141.441406 -545.867188 148.609375 -546.515625 C 155.773438 -547.171875 162.289062 -548.148438 168.15625 -549.453125 C 168.8125 -549.453125 166.859375 -547.984375 162.296875 -545.046875 C 157.734375 -542.117188 148.28125 -540.65625 133.9375 -540.65625 Z M 235.625 -51.8125 C 236.925781 -47.25 240.179688 -45.128906 245.390625 -45.453125 C 250.609375 -45.785156 252.890625 -48.234375 252.234375 -52.796875 C 243.109375 -122.535156 236.585938 -192.113281 232.671875 -261.53125 C 228.765625 -330.945312 227.789062 -400.523438 229.75 -470.265625 C 229.75 -470.910156 228.609375 -471.070312 226.328125 -470.75 C 224.046875 -470.425781 222.90625 -469.613281 222.90625 -468.3125 C 221.601562 -445.5 220.785156 -419.75 220.453125 -391.0625 C 220.128906 -362.382812 220.128906 -333.707031 220.453125 -305.03125 C 220.785156 -276.351562 221.28125 -250.28125 221.9375 -226.8125 C 221.28125 -226.8125 220.625 -229.582031 219.96875 -235.125 C 219.320312 -240.664062 218.507812 -246.367188 217.53125 -252.234375 C 216.550781 -258.097656 215.738281 -260.707031 215.09375 -260.0625 C 214.4375 -264.625 213.941406 -269.019531 213.609375 -273.25 C 213.285156 -277.488281 213.125 -281.238281 213.125 -284.5 C 212.476562 -302.75 211.828125 -320.835938 211.171875 -338.765625 C 210.523438 -356.691406 210.203125 -374.453125 210.203125 -392.046875 C 210.203125 -410.296875 210.523438 -428.21875 211.171875 -445.8125 C 211.828125 -463.414062 212.15625 -481.34375 212.15625 -499.59375 C 211.5 -504.15625 209.539062 -507.410156 206.28125 -509.359375 C 203.03125 -511.316406 199.773438 -511.972656 196.515625 -511.328125 C 191.296875 -524.359375 183.144531 -530.382812 172.0625 -529.40625 C 160.988281 -528.425781 149.75 -524.515625 138.34375 -517.671875 C 126.9375 -510.828125 117.648438 -505.125 110.484375 -500.5625 C 109.171875 -499.257812 107.863281 -497.789062 106.5625 -496.15625 C 105.257812 -494.53125 103.957031 -492.742188 102.65625 -490.796875 C 96.789062 -484.929688 92.226562 -477.597656 88.96875 -468.796875 C 85.707031 -459.992188 83.425781 -451.03125 82.125 -441.90625 C 80.164062 -424.3125 79.1875 -406.550781 79.1875 -388.625 C 79.1875 -370.695312 79.1875 -352.9375 79.1875 -335.34375 C 78.539062 -298.84375 79.359375 -262.503906 81.640625 -226.328125 C 83.921875 -190.148438 87.34375 -153.816406 91.90625 -117.328125 C 93.851562 -103.640625 95.96875 -89.953125 98.25 -76.265625 C 100.53125 -62.578125 106.890625 -50.84375 117.328125 -41.0625 C 122.535156 -37.15625 127.421875 -34.222656 131.984375 -32.265625 L 133.9375 -29.328125 C 143.0625 -20.203125 154.304688 -14.335938 167.671875 -11.734375 C 181.035156 -9.128906 193.582031 -10.757812 205.3125 -16.625 C 209.875 -18.570312 212.804688 -21.335938 214.109375 -24.921875 C 215.410156 -28.515625 215.738281 -31.941406 215.09375 -35.203125 C 224.21875 -38.453125 231.0625 -43.988281 235.625 -51.8125 Z M 127.09375 -450.703125 C 127.09375 -453.960938 129.375 -457.222656 133.9375 -460.484375 L 134.921875 -460.484375 C 129.703125 -444.835938 126.273438 -428.378906 124.640625 -411.109375 C 123.015625 -393.835938 122.203125 -376.726562 122.203125 -359.78125 C 121.554688 -337.625 121.394531 -315.625 121.71875 -293.78125 C 122.039062 -271.945312 122.203125 -249.953125 122.203125 -227.796875 L 119.28125 -227.796875 C 117.976562 -239.523438 116.671875 -251.253906 115.359375 -262.984375 C 114.054688 -274.722656 112.753906 -286.457031 111.453125 -298.1875 L 111.453125 -300.140625 C 111.453125 -301.441406 111.453125 -302.90625 111.453125 -304.53125 C 111.453125 -306.164062 111.453125 -307.960938 111.453125 -309.921875 C 112.753906 -332.734375 113.894531 -356.359375 114.875 -380.796875 C 115.851562 -405.242188 119.925781 -428.546875 127.09375 -450.703125 Z M 127.09375 -450.703125 "/></g></g></g><g fill="#fff1d5" fill-opacity="1"><g transform="translate(285.602428, 781.924283)"><g><path d="M 537.71875 -50.84375 L 536.734375 -47.90625 C 536.734375 -42.6875 536.40625 -37.632812 535.75 -32.75 C 535.101562 -27.863281 534.128906 -22.8125 532.828125 -17.59375 L 531.859375 -17.59375 C 529.242188 -11.726562 526.304688 -7.492188 523.046875 -4.890625 C 520.441406 -0.328125 516.859375 3.582031 512.296875 6.84375 C 507.734375 10.101562 504.148438 14.015625 501.546875 18.578125 C 498.941406 21.835938 496.984375 25.75 495.671875 30.3125 C 494.367188 34.875 492.085938 39.109375 488.828125 43.015625 C 472.535156 66.484375 452.007812 79.191406 427.25 81.140625 C 422.6875 83.097656 417.144531 84.078125 410.625 84.078125 C 406.0625 84.078125 401.820312 83.425781 397.90625 82.125 C 394 80.820312 390.414062 79.84375 387.15625 79.1875 C 366.945312 70.0625 353.75 56.695312 347.5625 39.09375 C 341.375 21.5 336.648438 5.535156 333.390625 -8.796875 L 333.390625 -10.75 L 327.515625 -38.125 C 325.566406 -41.382812 322.144531 -47.578125 317.25 -56.703125 C 312.363281 -65.828125 309.921875 -70.390625 309.921875 -70.390625 L 246.375 -182.828125 L 237.578125 -199.4375 C 237.578125 -196.1875 237.578125 -192.929688 237.578125 -189.671875 C 237.578125 -186.410156 237.578125 -183.148438 237.578125 -179.890625 L 240.5 -107.546875 C 240.5 -104.941406 240.5 -102.5 240.5 -100.21875 C 240.5 -97.9375 240.828125 -95.164062 241.484375 -91.90625 C 242.140625 -83.425781 242.46875 -74.460938 242.46875 -65.015625 C 242.46875 -55.566406 241.488281 -46.28125 239.53125 -37.15625 C 234.3125 -13.6875 222.90625 2.609375 205.3125 11.734375 C 199.445312 37.804688 186.082031 54.425781 165.21875 61.59375 C 148.925781 79.1875 129.375 87.984375 106.5625 87.984375 C 97.4375 87.984375 89.289062 86.679688 82.125 84.078125 C 60.613281 78.210938 47.085938 68.109375 41.546875 53.765625 C 36.003906 39.429688 31.609375 22.488281 28.359375 2.9375 C 21.835938 -42.6875 16.785156 -88.472656 13.203125 -134.421875 C 9.617188 -180.378906 7.171875 -226.171875 5.859375 -271.796875 C 4.554688 -300.472656 3.578125 -329.472656 2.921875 -358.796875 C 2.273438 -388.128906 1.628906 -416.8125 0.984375 -444.84375 C 0.984375 -451.363281 0.816406 -457.71875 0.484375 -463.90625 C 0.160156 -470.09375 0 -476.445312 0 -482.96875 C -0.65625 -496 0.96875 -510.5 4.875 -526.46875 C 8.789062 -542.4375 16.289062 -554.332031 27.375 -562.15625 C 31.9375 -565.414062 36.660156 -570.140625 41.546875 -576.328125 C 46.441406 -582.523438 49.210938 -588.554688 49.859375 -594.421875 C 51.160156 -600.941406 54.253906 -605.832031 59.140625 -609.09375 C 64.035156 -612.351562 68.765625 -615.285156 73.328125 -617.890625 C 75.285156 -625.054688 78.546875 -631.25 83.109375 -636.46875 C 95.484375 -654.0625 112.101562 -662.859375 132.96875 -662.859375 C 149.914062 -662.859375 165.71875 -657.96875 180.375 -648.1875 C 195.039062 -638.414062 207.425781 -627.988281 217.53125 -616.90625 C 227.632812 -605.832031 233.988281 -598.335938 236.59375 -594.421875 C 246.375 -582.035156 256.148438 -568.347656 265.921875 -553.359375 L 268.859375 -559.234375 C 271.460938 -564.441406 274.554688 -568.835938 278.140625 -572.421875 C 281.734375 -576.003906 285.15625 -579.753906 288.40625 -583.671875 C 291.664062 -587.578125 294.597656 -591.972656 297.203125 -596.859375 C 299.816406 -601.753906 302.425781 -606.484375 305.03125 -611.046875 C 307.632812 -614.953125 310.566406 -618.367188 313.828125 -621.296875 C 317.085938 -624.234375 320.019531 -627.332031 322.625 -630.59375 C 327.84375 -639.71875 335.335938 -646.722656 345.109375 -651.609375 C 354.890625 -656.503906 365.320312 -658.953125 376.40625 -658.953125 C 394 -658.953125 409.316406 -654.390625 422.359375 -645.265625 L 431.15625 -639.390625 L 438.96875 -632.546875 L 439.953125 -629.625 C 449.078125 -628.96875 457.222656 -625.539062 464.390625 -619.34375 C 471.566406 -613.15625 476.128906 -605.5 478.078125 -596.375 C 487.203125 -554.664062 495.023438 -512.628906 501.546875 -470.265625 C 506.753906 -434.410156 511.640625 -398.722656 516.203125 -363.203125 C 520.765625 -327.679688 524.351562 -292 526.96875 -256.15625 C 529.570312 -222.90625 531.523438 -189.007812 532.828125 -154.46875 C 533.484375 -138.175781 533.8125 -121.554688 533.8125 -104.609375 C 533.8125 -87.660156 534.785156 -70.710938 536.734375 -53.765625 Z M 453.640625 2.9375 C 462.765625 2.9375 471.238281 0.332031 479.0625 -4.875 C 486.882812 -10.09375 493.398438 -16.289062 498.609375 -23.46875 C 494.703125 -83.425781 489.816406 -143.710938 483.953125 -204.328125 C 478.085938 -264.941406 470.265625 -324.90625 460.484375 -384.21875 C 455.921875 -413.550781 451.03125 -443.046875 445.8125 -472.703125 C 440.601562 -502.359375 434.085938 -531.203125 426.265625 -559.234375 C 423.660156 -568.359375 421.050781 -577.644531 418.4375 -587.09375 C 415.832031 -596.539062 413.550781 -605.828125 411.59375 -614.953125 C 408.988281 -617.554688 406.707031 -619.1875 404.75 -619.84375 C 396.28125 -625.707031 386.015625 -628.640625 373.953125 -628.640625 C 361.898438 -628.640625 352.941406 -623.097656 347.078125 -612.015625 C 347.078125 -611.367188 346.910156 -611.046875 346.578125 -611.046875 C 346.253906 -611.046875 346.09375 -610.71875 346.09375 -610.0625 C 339.570312 -606.15625 334.03125 -600.289062 329.46875 -592.46875 C 324.257812 -582.6875 322.796875 -573.070312 325.078125 -563.625 C 327.359375 -554.175781 329.800781 -544.890625 332.40625 -535.765625 C 337.625 -518.160156 341.859375 -500.5625 345.109375 -482.96875 C 348.367188 -465.375 351.628906 -447.773438 354.890625 -430.171875 C 359.453125 -405.410156 364.015625 -380.316406 368.578125 -354.890625 C 373.140625 -329.472656 376.726562 -304.378906 379.34375 -279.609375 L 363.6875 -309.921875 C 363.6875 -313.828125 363.035156 -317.085938 361.734375 -319.703125 C 351.960938 -339.898438 341.859375 -359.773438 331.421875 -379.328125 C 320.992188 -398.890625 310.242188 -418.117188 299.171875 -437.015625 C 286.128906 -461.128906 272.601562 -484.753906 258.59375 -507.890625 C 244.582031 -531.035156 229.101562 -553.6875 212.15625 -575.84375 C 207.59375 -581.707031 201.070312 -589.039062 192.59375 -597.84375 C 184.125 -606.644531 174.675781 -614.46875 164.25 -621.3125 C 153.820312 -628.15625 143.71875 -631.738281 133.9375 -632.0625 C 124.164062 -632.382812 115.367188 -627.660156 107.546875 -617.890625 C 102.328125 -610.722656 99.71875 -603.226562 99.71875 -595.40625 C 93.851562 -594.75 87.660156 -591.816406 81.140625 -586.609375 C 79.835938 -565.742188 79.347656 -544.554688 79.671875 -523.046875 C 80.003906 -501.546875 80.492188 -480.039062 81.140625 -458.53125 C 82.453125 -425.289062 83.429688 -391.882812 84.078125 -358.3125 C 84.734375 -324.75 85.710938 -291.347656 87.015625 -258.109375 C 88.316406 -217.046875 89.78125 -175.984375 91.40625 -134.921875 C 93.039062 -93.859375 95.160156 -52.796875 97.765625 -11.734375 C 105.585938 -1.953125 114.710938 4.238281 125.140625 6.84375 C 136.222656 10.101562 146.8125 9.941406 156.90625 6.359375 C 167.007812 2.773438 175 -3.90625 180.875 -13.6875 C 194.5625 -15.644531 203.195312 -22.160156 206.78125 -33.234375 C 210.363281 -44.316406 211.828125 -56.863281 211.171875 -70.875 C 210.523438 -84.894531 209.875 -96.789062 209.21875 -106.5625 C 208.570312 -126.113281 208.082031 -145.664062 207.75 -165.21875 C 207.425781 -184.78125 206.613281 -204.335938 205.3125 -223.890625 C 205.3125 -257.128906 205.472656 -290.367188 205.796875 -323.609375 C 206.117188 -356.847656 205.957031 -390.085938 205.3125 -423.328125 C 207.914062 -420.066406 210.519531 -416.484375 213.125 -412.578125 C 215.738281 -408.671875 218.347656 -405.085938 220.953125 -401.828125 L 391.0625 -97.765625 L 396.9375 -64.53125 C 399.539062 -52.144531 403.125 -39.269531 407.6875 -25.90625 C 412.25 -12.539062 421.050781 -2.925781 434.09375 2.9375 C 441.257812 6.84375 447.773438 6.84375 453.640625 2.9375 Z M 508.390625 -33.234375 C 509.035156 -40.410156 509.195312 -48.394531 508.875 -57.1875 C 508.550781 -65.988281 508.0625 -72.019531 507.40625 -75.28125 C 508.0625 -161.96875 503.335938 -248.488281 493.234375 -334.84375 C 483.128906 -421.207031 469.28125 -506.753906 451.6875 -591.484375 C 451.03125 -596.703125 448.421875 -599.472656 443.859375 -599.796875 C 439.296875 -600.128906 435.710938 -598.664062 433.109375 -595.40625 C 429.847656 -592.144531 428.867188 -588.554688 430.171875 -584.640625 C 450.378906 -494.046875 466.1875 -402.304688 477.59375 -309.421875 C 489 -216.546875 497.960938 -123.507812 504.484375 -30.3125 C 505.785156 -32.257812 507.085938 -33.234375 508.390625 -33.234375 Z M 80.171875 -104.609375 C 82.128906 -83.753906 83.921875 -71.859375 85.546875 -68.921875 C 87.171875 -65.992188 87.984375 -64.53125 87.984375 -64.53125 L 79.1875 -284.5 C 78.539062 -319.039062 77.726562 -353.257812 76.75 -387.15625 C 75.769531 -421.050781 74.953125 -454.941406 74.296875 -488.828125 C 73.648438 -504.472656 73.160156 -520.117188 72.828125 -535.765625 C 72.503906 -551.410156 72.671875 -567.050781 73.328125 -582.6875 C 70.066406 -574.863281 67.785156 -566.550781 66.484375 -557.75 C 65.179688 -548.957031 64.851562 -540.328125 65.5 -531.859375 C 66.15625 -496.660156 66.804688 -461.460938 67.453125 -426.265625 C 68.109375 -391.066406 69.085938 -356.195312 70.390625 -321.65625 C 71.691406 -286.457031 72.992188 -250.117188 74.296875 -212.640625 C 75.609375 -175.160156 77.566406 -139.148438 80.171875 -104.609375 Z M 189.671875 -152.515625 C 190.316406 -146.648438 190.800781 -140.945312 191.125 -135.40625 C 191.457031 -129.863281 191.625 -124.160156 191.625 -118.296875 C 192.925781 -108.523438 193.738281 -98.75 194.0625 -88.96875 C 194.394531 -79.1875 194.882812 -69.734375 195.53125 -60.609375 C 196.832031 -49.535156 194.226562 -38.457031 187.71875 -27.375 C 190.96875 -39.757812 191.125 -51.328125 188.1875 -62.078125 C 185.257812 -72.835938 183.796875 -82.128906 183.796875 -89.953125 L 184.78125 -148.609375 C 185.425781 -149.253906 185.910156 -149.578125 186.234375 -149.578125 C 186.566406 -149.578125 186.734375 -149.578125 186.734375 -149.578125 Z M 189.671875 -152.515625 "/></g></g></g><g fill="#fff1d5" fill-opacity="1"><g transform="translate(793.9883, 781.924283)"><g><path d="M 593.453125 -100.703125 C 597.359375 -84.410156 598.332031 -69.742188 596.375 -56.703125 C 593.113281 -34.546875 582.035156 -19.226562 563.140625 -10.75 C 562.484375 -10.101562 562.15625 -9.453125 562.15625 -8.796875 C 558.894531 17.273438 545.535156 33.242188 522.078125 39.109375 C 521.421875 39.753906 520.601562 40.078125 519.625 40.078125 C 518.65625 40.078125 517.515625 40.40625 516.203125 41.0625 C 509.691406 45.625 502.523438 49.207031 494.703125 51.8125 C 486.878906 54.425781 478.734375 55.734375 470.265625 55.734375 C 455.921875 55.734375 442.226562 51.65625 429.1875 43.5 C 416.15625 35.351562 406.054688 24.765625 398.890625 11.734375 C 392.367188 0.00390625 388.785156 -11.726562 388.140625 -23.46875 C 373.796875 -52.144531 355.707031 -81.472656 333.875 -111.453125 C 312.039062 -141.429688 285.804688 -173.695312 255.171875 -208.25 C 252.566406 -211.5 249.957031 -214.59375 247.34375 -217.53125 C 244.738281 -220.46875 242.132812 -223.238281 239.53125 -225.84375 L 245.390625 -175.984375 C 247.347656 -165.554688 249.300781 -154.960938 251.25 -144.203125 C 253.207031 -133.453125 255.164062 -123.1875 257.125 -113.40625 C 257.78125 -112.101562 258.429688 -110.472656 259.078125 -108.515625 C 259.734375 -106.566406 260.382812 -104.613281 261.03125 -102.65625 C 262.34375 -99.394531 263.8125 -95.972656 265.4375 -92.390625 C 267.0625 -88.804688 268.203125 -84.40625 268.859375 -79.1875 L 274.71875 -49.859375 C 279.9375 -27.703125 274.398438 -10.101562 258.109375 2.9375 C 255.492188 4.882812 252.882812 6.835938 250.28125 8.796875 C 247.675781 10.753906 244.742188 12.710938 241.484375 14.671875 C 240.179688 30.304688 234.316406 42.363281 223.890625 50.84375 C 201.722656 69.09375 177.28125 78.21875 150.5625 78.21875 C 146 78.21875 141.109375 77.890625 135.890625 77.234375 C 130.679688 76.585938 125.46875 75.609375 120.25 74.296875 L 118.296875 74.296875 C 101.347656 74.296875 85.867188 69.570312 71.859375 60.125 C 57.847656 50.675781 47.253906 38.128906 40.078125 22.484375 C 34.867188 9.453125 31.285156 -3.414062 29.328125 -16.125 C 27.367188 -28.84375 25.738281 -41.066406 24.4375 -52.796875 C 24.4375 -56.054688 24.273438 -59.3125 23.953125 -62.5625 C 23.628906 -65.820312 23.140625 -69.082031 22.484375 -72.34375 C 18.578125 -107.539062 14.828125 -141.597656 11.234375 -174.515625 C 7.648438 -207.429688 4.882812 -240.179688 2.9375 -272.765625 C 0.320312 -304.703125 -1.796875 -337.289062 -3.421875 -370.53125 C -5.046875 -403.78125 -6.515625 -438.328125 -7.828125 -474.171875 L -8.796875 -484.921875 C -8.796875 -492.085938 -8.957031 -499.253906 -9.28125 -506.421875 C -9.613281 -513.597656 -9.78125 -520.769531 -9.78125 -527.9375 L -9.78125 -528.921875 C -9.78125 -534.785156 -9.453125 -541.460938 -8.796875 -548.953125 C -8.148438 -556.453125 -5.867188 -564.113281 -1.953125 -571.9375 C 2.605469 -582.363281 9.773438 -590.835938 19.546875 -597.359375 L 21.515625 -599.3125 C 22.816406 -601.269531 23.953125 -603.222656 24.921875 -605.171875 C 25.898438 -607.128906 26.71875 -608.757812 27.375 -610.0625 C 28.675781 -613.320312 30.304688 -616.582031 32.265625 -619.84375 C 36.828125 -630.269531 43.992188 -638.742188 53.765625 -645.265625 L 55.734375 -647.21875 C 62.242188 -659.601562 71.363281 -669.21875 83.09375 -676.0625 C 94.832031 -682.90625 107.546875 -686.328125 121.234375 -686.328125 C 151.210938 -686.328125 174.347656 -674.921875 190.640625 -652.109375 C 202.378906 -635.160156 206.289062 -617.234375 202.375 -598.328125 L 208.25 -593.453125 C 214.113281 -587.578125 217.046875 -580.078125 217.046875 -570.953125 L 217.046875 -565.09375 C 217.046875 -554.664062 217.207031 -544.398438 217.53125 -534.296875 C 217.851562 -524.191406 218.015625 -514.253906 218.015625 -504.484375 C 224.535156 -507.085938 230.566406 -509.691406 236.109375 -512.296875 C 241.648438 -514.898438 247.023438 -517.507812 252.234375 -520.125 C 269.835938 -528.59375 288.578125 -537.710938 308.453125 -547.484375 C 328.335938 -557.265625 348.378906 -567.367188 368.578125 -577.796875 C 379.660156 -583.671875 390.085938 -589.375 399.859375 -594.90625 C 409.640625 -600.445312 418.769531 -605.828125 427.25 -611.046875 C 428.550781 -611.691406 429.851562 -612.34375 431.15625 -613 C 432.457031 -613.65625 433.4375 -614.304688 434.09375 -614.953125 C 441.257812 -619.515625 449.894531 -624.238281 460 -629.125 C 470.101562 -634.019531 480.691406 -636.46875 491.765625 -636.46875 C 495.023438 -636.46875 497.796875 -636.300781 500.078125 -635.96875 C 502.359375 -635.644531 504.800781 -635.160156 507.40625 -634.515625 C 523.707031 -629.953125 536.421875 -619.847656 545.546875 -604.203125 C 556.617188 -600.941406 564.765625 -594.75 569.984375 -585.625 C 577.148438 -571.9375 577.472656 -558.25 570.953125 -544.5625 C 565.742188 -534.78125 560.039062 -525.488281 553.84375 -516.6875 C 547.65625 -507.894531 540.976562 -499.585938 533.8125 -491.765625 C 522.070312 -470.910156 508.054688 -452.332031 491.765625 -436.03125 C 475.472656 -419.738281 457.875 -404.75 438.96875 -391.0625 C 463.09375 -365.644531 484.601562 -338.429688 503.5 -309.421875 C 522.40625 -280.421875 539.023438 -249.953125 553.359375 -218.015625 C 562.484375 -197.816406 570.304688 -177.9375 576.828125 -158.375 C 583.347656 -138.820312 588.890625 -119.597656 593.453125 -100.703125 Z M 547.5 -38.125 C 559.226562 -41.382812 565.414062 -49.039062 566.0625 -61.09375 C 566.71875 -73.15625 566.066406 -84.078125 564.109375 -93.859375 C 559.546875 -112.753906 554.003906 -131.488281 547.484375 -150.0625 C 540.972656 -168.644531 533.484375 -187.0625 525.015625 -205.3125 C 508.710938 -242.457031 488.828125 -277.488281 465.359375 -310.40625 C 441.898438 -343.320312 415.179688 -373.796875 385.203125 -401.828125 C 382.597656 -405.085938 379.335938 -405.410156 375.421875 -402.796875 C 371.515625 -400.191406 369.882812 -397.257812 370.53125 -394 L 356.84375 -405.734375 C 361.40625 -408.335938 365.640625 -410.617188 369.546875 -412.578125 C 373.460938 -414.535156 377.703125 -416.816406 382.265625 -419.421875 C 413.554688 -437.015625 444.03125 -456.566406 473.6875 -478.078125 C 503.34375 -499.585938 526.640625 -526.3125 543.578125 -558.25 C 546.835938 -564.113281 546.023438 -569 541.140625 -572.90625 C 536.253906 -576.820312 531.203125 -576.828125 525.984375 -572.921875 L 523.046875 -569.984375 C 523.046875 -577.804688 521.09375 -584.972656 517.1875 -591.484375 C 513.28125 -598.003906 507.414062 -602.242188 499.59375 -604.203125 C 489.8125 -607.460938 479.867188 -605.992188 469.765625 -599.796875 C 459.671875 -593.609375 450.710938 -588.234375 442.890625 -583.671875 C 405.085938 -561.503906 363.535156 -539.34375 318.234375 -517.1875 C 272.929688 -495.03125 230.078125 -475.148438 189.671875 -457.546875 C 189.015625 -475.796875 188.359375 -493.71875 187.703125 -511.3125 C 187.054688 -528.914062 186.40625 -546.84375 185.75 -565.09375 L 185.75 -571.9375 C 185.75 -571.9375 185.585938 -572.097656 185.265625 -572.421875 C 184.941406 -572.753906 184.78125 -572.59375 184.78125 -571.9375 C 181.519531 -551.726562 178.582031 -531.195312 175.96875 -510.34375 C 173.363281 -489.488281 171.085938 -468.632812 169.140625 -447.78125 C 167.179688 -447.125 164.570312 -445.164062 161.3125 -441.90625 L 164.25 -529.890625 C 164.894531 -540.972656 165.378906 -552.21875 165.703125 -563.625 C 166.035156 -575.03125 167.503906 -585.625 170.109375 -595.40625 C 174.671875 -608.4375 174.019531 -620.003906 168.15625 -630.109375 C 162.289062 -640.210938 153.816406 -647.546875 142.734375 -652.109375 C 131.660156 -656.671875 120.421875 -657.484375 109.015625 -654.546875 C 97.609375 -651.617188 88.644531 -644.285156 82.125 -632.546875 C 81.46875 -630.597656 80.648438 -628.804688 79.671875 -627.171875 C 78.703125 -625.546875 77.890625 -623.753906 77.234375 -621.796875 C 66.804688 -619.191406 60.453125 -613.160156 58.171875 -603.703125 C 55.890625 -594.253906 55.078125 -584.96875 55.734375 -575.84375 C 55.734375 -567.375 55.894531 -558.738281 56.21875 -549.9375 C 56.539062 -541.132812 56.703125 -532.171875 56.703125 -523.046875 C 58.003906 -489.160156 59.46875 -455.597656 61.09375 -422.359375 C 62.726562 -389.117188 64.847656 -355.875 67.453125 -322.625 C 70.066406 -289.382812 73.164062 -256.144531 76.75 -222.90625 C 80.332031 -189.664062 84.078125 -156.425781 87.984375 -123.1875 C 89.296875 -108.84375 90.601562 -94.335938 91.90625 -79.671875 C 93.207031 -65.015625 96.789062 -50.84375 102.65625 -37.15625 C 107.875 -26.726562 115.695312 -18.414062 126.125 -12.21875 C 136.550781 -6.03125 147.304688 -3.585938 158.390625 -4.890625 C 187.066406 5.535156 213.785156 0.320312 238.546875 -20.53125 C 241.804688 -23.789062 243.925781 -27.535156 244.90625 -31.765625 C 245.882812 -36.003906 245.722656 -40.082031 244.421875 -44 C 242.460938 -55.070312 239.691406 -65.984375 236.109375 -76.734375 C 232.523438 -87.492188 229.425781 -97.4375 226.8125 -106.5625 C 224.863281 -117.644531 222.75 -128.5625 220.46875 -139.3125 C 218.1875 -150.070312 216.394531 -160.664062 215.09375 -171.09375 C 208.570312 -225.1875 202.703125 -279.609375 197.484375 -334.359375 L 220.953125 -344.140625 C 224.210938 -345.441406 226.984375 -346.582031 229.265625 -347.5625 C 231.546875 -348.539062 233.988281 -349.351562 236.59375 -350 C 250.9375 -339.570312 264.132812 -328.003906 276.1875 -315.296875 C 288.25 -302.585938 300.144531 -289.71875 311.875 -276.6875 C 338.601562 -247.351562 364.347656 -216.066406 389.109375 -182.828125 C 413.878906 -149.585938 435.390625 -114.71875 453.640625 -78.21875 C 453.640625 -68.4375 455.921875 -59.3125 460.484375 -50.84375 C 468.953125 -32.59375 483.617188 -23.46875 504.484375 -23.46875 C 519.472656 -23.46875 531.203125 -28.84375 539.671875 -39.59375 C 548.148438 -50.351562 551.734375 -62.25 550.421875 -75.28125 C 549.773438 -86.363281 545.703125 -101.515625 538.203125 -120.734375 C 530.710938 -139.960938 521.425781 -160.820312 510.34375 -183.3125 C 499.257812 -205.800781 487.523438 -227.960938 475.140625 -249.796875 C 462.765625 -271.628906 450.875 -291.503906 439.46875 -309.421875 C 428.0625 -327.347656 418.769531 -340.875 411.59375 -350 C 440.28125 -318.71875 465.375 -285.640625 486.875 -250.765625 C 508.382812 -215.898438 526.3125 -178.585938 540.65625 -138.828125 C 542.601562 -134.265625 545.367188 -127.257812 548.953125 -117.8125 C 552.546875 -108.363281 555.644531 -98.421875 558.25 -87.984375 C 560.851562 -77.554688 561.503906 -68.101562 560.203125 -59.625 C 558.898438 -51.15625 554.335938 -45.296875 546.515625 -42.046875 C 545.867188 -41.390625 545.707031 -40.410156 546.03125 -39.109375 C 546.351562 -37.804688 546.84375 -37.476562 547.5 -38.125 Z M 547.5 -38.125 "/></g></g></g></g></g></svg>