<svg xmlns="http://www.w3.org/2000/svg" width="1328" height="305" viewBox="59 244 1328 305"><path fill="#111" d="M61.4 304.4q-2.7-9 1.6-17.9a62 62 0 0 1 5-8.3l11.5 8.2-11.8-7.8q5.3-8 13.4-13.4l7.8 11.8-10-10q3-3.1 6-4.6l6.3 12.7-8.1-11.6a72 72 0 0 1 20-9.9 49 49 0 0 1 43.2 8.1q9 7 13 18.5 3.3 9-1.5 17.4-2.7 4.8-7 8.4l-.3.3-.5.3a67 67 0 0 1-25.3 11.4l-3-13.8 10.6 9.4q-6 6.8-15.5 9.6a52 52 0 0 1-26.3 1.3 64 64 0 0 1-11-2.9l4.9-13.3-3.9 13.6q-5.2-1.4-10.3-5.3a23 23 0 0 1-8.9-12.3Zm27.2-8a6 6 0 0 0-1.4-2.5l1.1.8.5.1.4.2a36 36 0 0 0 12.6 2.2 24 24 0 0 0 6.8-1.1q1.9-.6 2.6-1.4l3.1-3.4 4.5-1q7.6-1.6 14.7-6.7l8.3 11.5-9-10.9.5-.7a7 7 0 0 0-.7 6q-1.3-3.4-3.6-5.3a22 22 0 0 0-8.2-3.7q-4.7-1.3-9.4.2a44 44 0 0 0-12.1 6l-.9.6-.9.4 1.8-1-.4.3-1 1-1.1.8q-3.3 2.1-5.5 5.5l-.2.2-.1.1q-1.2 1.8-2.6 4.6.6-1.3.1-2.9Zm11.6-1.1 5.1-.3q-.8.2-1.8.8l1-.7-1.6 1.6a14 14 0 0 0-3.6 9.4 14 14 0 0 0 7.3 12.3q3.2 1.8 6.9 1.8V306l3 13.9a55 55 0 0 1-23.7.5l-.3-.1h-.3a29 29 0 0 1-20.7-15.1q-5.7-11.5-.6-23.8l13.1 5.4 10.7 9.3q-1.7 1.9-3.2 4.6L79.1 294l13 5.5v.3-1.1q0-2.7-1.3-5a7 7 0 0 0-1.5-2q1.6 1.4 2.6 1.7 4.2 1.4 9.8 2l-1.5 14Zm0 28.3h-1.4a75 75 0 0 1-15.9-3.4 39 39 0 0 1-11.7-6.7q-7.5-6-7.4-14.8 0-5 2.3-10.3l.2-.6.4-.6q3-5.6 6.7-9.7L97 292.2l-.2.6v-.3l-.6-.6q.6.3 2.2.7l-3.2 13.8 2.5-14a28 28 0 0 0 12.6-.2l1.5-.3h1.6a14 14 0 0 1 12.2 7 14 14 0 0 1 2 7.2q0 5.4-3.7 9.5l-2.4 2.2-2.8 1.9a35 35 0 0 1-18.6 3.9m51.5 181.8q-5.2 9-15.4 12.6l-4.7-13.4 13.9-2.7q1 5.8-1 11.5-2.9 7.9-11.1 11.4l-5.6-13 6.3 12.7a38.5 38.5 0 0 1-43.9-7.6l-1-1-1.5-2.3 11.8-7.8-5.6 13a42 42 0 0 1-8.6-5.1l-.6-.5-.6-.5a37 37 0 0 1-11.6-21.6L70 475a705 705 0 0 1-4-43.2q-1.5-21.5-1-43.2v-20.3q0-11.2 1.2-22.2v-.4q1-6.8 3.4-13.3 3-8 8.6-13.6l10 10-11.8-7.9a43 43 0 0 1 4.8-5.9l1-1 1.4-1 11-6.7q9.5-5.7 19.1-6.5 8.5-.7 15.3 4.2 5.5 4 8.6 11.6l-13.2 5.3-2.8-14q7.3-1.3 13.9 2.6 7.5 4.6 9 13.9l.1 1v1q0 10.8-.4 21.3a554 554 0 0 0 0 40.3l.8 21.2v.3a44 44 0 0 0 .6 7.4l-14 2-10-10a14 14 0 0 1 13.3-3.8 14 14 0 0 1 8.2 5.4q1.6 2 2.4 4.7.6 1.8 1 4.4.7 3.8 1 7.3l.1.8q-.2-1-.8-2.2-.9-2-2.4-3.5-4-4.4-10.2-4.4v14.1l-14.1.4a1891 1891 0 0 1-.6-64q.2-16.8 1-30.4l14.1.8h-14.2a15 15 0 0 1 6.3-12.2q3-2.1 7.2-2.8 2.7-.3 5 0a14.5 14.5 0 0 1 12.5 14.2v.4q-1.1 39.9 1.1 79.4 2.3 39.7 7.5 79.6 1 7.9-4.2 13.5-4.5 4.8-11.6 5.3-6.2.4-11-2.8a17 17 0 0 1-7.3-9.9l13.6-3.9ZM127.3 491l16.7-28.7 9.1 32q-1-3.9-4.6-6.1a10 10 0 0 0-6.1-1.8q-4.1.3-7.3 3.7a12 12 0 0 0-3.2 9.5q-5.4-41-7.7-81.7a971 971 0 0 1-1.1-81.8l14.1.4h-14.1a14 14 0 0 0 5.8 11.4 13 13 0 0 0 9 2.5q2.8-.4 5.3-2.2a13 13 0 0 0 5.6-11v.9a640 640 0 0 0-1 29.2 1444 1444 0 0 0 .6 62.8l.4 14.6h-14.6q-6.1 0-10.4-4.5a15 15 0 0 1-3.7-7.2l-.7-4-1-6.8v.3q.8 2 2 3.7 3 4.1 8 5.2 4.2 1 8-.4 3-1 5.2-3.3l-20 20-4-28a94 94 0 0 1-1-11.4h14.2l-14.1.5-.8-21a581 581 0 0 1 0-42.4q.4-9.9.4-20.2h14.1l-14 2q.2 1.5 1.2 3 1.2 2 3.3 3.4 2.9 1.5 6.3 1l-11.6 2.3-4.3-11-.2-.4q.3.6 1 1 2 1.5 4.1 1.3-3.1.3-7 2.6-6.5 3.8-10.4 6.4l-7.6-12 10 10-.5.6-.8 1-.7 1.2-1 1q-1.2 1.3-2 3.4-1.5 3.8-2 7.5l-14-2 14.1 1.5q-1 9.5-1 19v21q-.5 20.5.9 41a673 673 0 0 0 3.8 41l2.4 15.4q.6 3.3 3.1 5.6l-9.7 10.4 8.5-11.4q1.6 1.3 2.8 1.8l3.8 1.6 3.1 4.6-11.8 7.9 10-10q2.3 2.2 5.8 2.9 3 .6 5.5-.7l.3-.1.4-.2a8 8 0 0 0-4.5 8.6l-2.4-12 11.5-4.1.5-.2ZM111 348.5q-3.6 11-4 23.2l-1.4 27.7-14.1-.9h14.1v4.6h-14l14-1.6 1.5 13.6 1.6 13.6-14.1 1.6V416h1.1v14.2H81.6l-.2-25.3q-.3-13 .2-26.1l14.1.4H81.6q0-10.4 1-21.2 1-11.5 4.6-22.2l13.4 4.5v14.2h-.4v-14.2l8.3 11.5q.6-.4 1.4-1.5 1.8-2.7 1.9-6.2v2.2Zm-27-8.7 13.5 4.4H83.4q0-9.1 8.6-15.3l3.7-2.7h24.6L114 345q-2.5 7.5-3.3 15.9-1 9.3-1 18.5v.4q-.3 12.5-.1 24.9l.2 25.7v14.1h-28L79 418.2 77.4 404v-6.2q.8-13 1.3-27 .8-16.1 5.4-30.9m0 0"/><path fill="#111" d="M319.1 531.1a20 20 0 0 1-11.4 3.5q-5.5 0-10.7-2.8l6.7-12.4-5.8 12.9a32 32 0 0 1-17.7-19.5q-3-8.5-4.7-16.6v-.2l-2.3-13 14-2.5-12.4 6.9L209 370l12.3-7-11 8.9-3.8-5.1q-1-1.8-2.3-3.2l11.1-8.9 14.2-.2q.3 19.5.1 38.9l-.1 38.4h-14.2l14.1-1q.8 11.7 1 23.4.2 11.3.6 22.4l-14.2.5 14.1-1 .8 14.1q.5 10.7-2.4 19.5a24 24 0 0 1-8.4 12q-5.5 4.1-13 5.3l-2-14 12.1 7.2a31 31 0 0 1-16.7 13.8 33 33 0 0 1-21 .5l4-13.6-3.4 13.7a33 33 0 0 1-18.2-12L160 519l-.3-4.5q-1.5-24-2.4-48l-1.7-47.5-1.2-39-1.1-38.4-.6-25.2q-.2-13 .6-25.7l.4-6.2 4.9-4a28 28 0 0 1 14.5-6.4l1.5 14.1h-14.1q0-9.1 5.7-17l.2-.3.2-.2q9-11.2 21.7-10.8 9.7.3 19 6.5 7.4 4.8 13.4 11 5.4 5.7 8.5 9.7a309 309 0 0 1 18.9 27.6q8.3 13.5 16 28l-12.5 6.7 12.3-7.2a651 651 0 0 1 24.7 46.3 22 22 0 0 1 2.1 10h-14.1L289 392l6 11.7-12.5 6.4-14 1.5q-1.5-13.8-4-28l-5.4-29-3.7-20.4q-1.8-9.4-4.6-19l-3-11.4a29 29 0 0 1 3-21.1v-.3l.2-.2q4.5-7.6 11.4-11.8l7.3 12.1h-14.2a15 15 0 0 1 6.4-12.1h.2a14 14 0 0 0-6.2 11.4v-3.5l1.6-3.1a25 25 0 0 1 22.9-14q11.4 0 20 6l-8 11.6 4.4-13.5a21 21 0 0 1 8.2 5.3l3 3 .8 4q1 5 2.5 10l3 10.7q4.6 17 7.8 34.8 3 17.3 5.7 34.5a1058 1058 0 0 1 9.2 70.3q3.5 35.3 5.7 70.2l.3 5.2-3 4q-4.5 6.3-11.1 10.7a31 31 0 0 1-17.7 5.4v-14.1Zm-15.7-23.5 3.6-2.4h4.3q1 0 2-.6 2.4-1.7 4-3.8l11.4 8.4-14.2.9a2234 2234 0 0 0-5.6-69.4q-3.3-34.6-9-68.7-2.6-16.8-5.6-33.9a335 335 0 0 0-10.2-42.8l-2.9-11.6 13.9-3-10 10q.8.9 2.8 1.6l-1.9-.6-1.6-1.2q-1.3-.9-3.9-.9.6 0 1.4-.5l.7-.6-12.5-6.6h14.2a15 15 0 0 1-6.4 12.1h-.2a14 14 0 0 0 6.2-11.4v8l-6.9 4.2q-.6.3-1.4 1.8l-12.3-7.2 12.5 6.7-.4 1.1 2.7 10.1a215 215 0 0 1 5.2 21.8l3.8 20.5 5.3 29a417 417 0 0 1 4.3 30.2l-26.7 8-7.6-14.8v-3.5q0 1.2.7 2.4a647 647 0 0 0-23.7-44.3l-.1-.2-.1-.2q-7.4-13.6-15.3-26.8a279 279 0 0 0-17-24.9q-2.2-2.8-6.6-7.3-3.8-4-8.5-7a9 9 0 0 0-4.4-2 3 3 0 0 0 2-.4h-.1l-.6.7-11-8.9L189 288l-.4.6v-.2V301l-12.5 1.4q.7 0 1-.3l-1 .7-8.8-11.1 14.2.9a302 302 0 0 0-.6 23.4l.6 24.6q.8 19.5 1.1 39 .4 19.3 1.2 38.4l1.7 47.6q.9 23.6 2.4 47.2l-14.1.9 11-8.8q1.5 1.9 3 2.2l.3.1h.2q2.1.7 3.6.1 1-.4 1.8-1.6l3.5-5.8 6.7-1h.5l-.6.3q-1 .8-1.4 1.8a27 27 0 0 0 1-9.5l-.7-13.5v-.5l-.6-22.8q-.1-11-1-22v-.9l.2-38.7q.2-19-.2-38l-.8-41.7 26 32.5q2 2.4 3.8 5.1 1.1 1.8 2.3 3.2l.7 1 67.5 120.5 2.6 15.1-14 2.5 14-3q1.2 6.4 3.6 13.3a5 5 0 0 0 2.7 2.8l.4.3.5.2q-1-.6-2.8-.6-2.4 0-4.3 1.3m29 12a13 13 0 0 0 10.3-5.2l-23 34.5-2.9-41.4a2053 2053 0 0 0-10.3-107q-6.6-53.2-18-105l13.7-3-13.4 4.4q-1.8-5.1-.3-10.3 1.3-4.8 4.9-8.3l10 10-11-8.8a18 18 0 0 1 16.1-7q6.9.4 11.4 5.3 4 4.2 4.7 10.3l-14 1.7 13.8-2.9q10.4 49.8 16.2 100.4 6 50.8 5.6 102l-14.1-.1 13.8-2.8q.6 3 .9 9.2.1 6-.3 11l-1.1 13Zm0-28.4v14.2l-14-1.3a58 58 0 0 0-.2-12.2l-.3-1.4V489q.4-49.3-5.4-98.4-5.7-49.4-15.8-98l-.1-.5-.1-.5q.3 3 2.8 5.6 3 3.2 7.2 3.5 2 .2 4-.7a10 10 0 0 0 4-2.9l-.6.7-.5.5q1.7-1.7 2.4-4.3.9-3-.1-6l.2.7.2.7q11.8 53.1 18.5 107.6 6.7 54.2 10.5 108.5l-14.2 1-11.8-7.8q1.8-2.6 4-4.4a15 15 0 0 1 9.3-3M153 479q-1.5-20.3-2.3-42.3l-1.6-42q-.7-20.2-1-40.7l-.9-40.8 14.2-.3-14.1 1.1a59 59 0 0 1 4-26.1l27.3 6q-.4 8.6-.2 17.2l.5 17.9v.3l1 39.1 1 39.8 3.3 84.6-26.5 7.5-1-1.7q-1.6-3-2.5-9-.6-3.9-1.2-10.4Zm28.2-2.4 1.3 10.4-1-2.2 1 1.7-12.4 7-14.2.5-3.4-85.3q-.3-19.9-.9-39.5l-1-39.4 14.2-.2-14.1.5q-.5-9.1-.6-18.4-.1-9.4.2-19l14.1.6 13.1 5.5q-1.2 2.9-1.7 6.2-.5 3.5-.3 6.9v.4l.8 41.2q.4 20.2 1.1 40.1l1.6 42.1q.6 21.4 2.2 41.2Zm38.2-7.2-5.3 5.3h-6q5.6 0 9.4-3.7l-10-10 14.1.2-.4 22.6q0 2.4 1.2 6.8a39 39 0 0 1-.1 20.8l-13.7-3.6-12.2-7.2q1.4-2.4 1.2-4v-.3l-.1-.4q-.5-5.5-.6-11.5-.2-5-.8-9.9l-.1-1v-.9a99 99 0 0 0-.7-11.6l14-1.6Zm-20-20 20.8-20.8 3.2 29.3a139 139 0 0 1 .9 14.7H210l14-1.8q1 6.4 1.1 12.7l.5 10.4-14 1 14-1.6a34 34 0 0 1-4.9 21.6l-25.9-10.7q1-3.6.2-6.1a56 56 0 0 1-2.2-14.7l.5-28.4 4-4q4.6-4.6 10.6-4.6h.2v14.2l-10-10Zm0 0"/><path fill="#111" d="M541.4 513.5q-2.7 2.7-6.3 3.7-6.3 1.8-11.9-1.8-4.7-3.1-6.1-8.8-.7-3.2-.3-6.5.9-4.7 4.2-8.1l2-2 2.6-1q-1.2.4-2.2 1.7t-1 2.3a14 14 0 0 0-.6-5.3q-1.3-5.2-3-10l-3-7.5-.2-.4-.2-.4q-7.8-21.6-19.5-40.6t-27.4-36.2l10.4-9.5 11.2-8.8q4.5 6 11.5 16.8a546 546 0 0 1 28.2 50q6.7 13.7 11.2 25.4a76 76 0 0 1 5.7 21.8l-14.2.9 14.1-1.5q1.4 13.4-7 24a30 30 0 0 1-24.8 11.6 33 33 0 0 1-17.8-4.8q-7.8-4.8-12-14l12.8-6-12.5 6.8A36 36 0 0 1 481 488h14.2l-12.7 6.4a255 255 0 0 0-23.6-38.3q-14-18.7-29-35.2-6.7-7.5-13.5-14.7-6.1-6.5-13.4-11.7l8.3-11.4 5 13.2-6 2.3-5-13.3 5.6 13-9.4 4-5.3-13.2 14.1-1.3q3 31.5 6.8 62.7.6 5.4 1.9 11l2.5 13.1-14 2.5 13.7-4q1.4 5 3.4 11 2.4 7.2 3.7 14.7l-14 2.4 13.5-4.4q2 6 .6 12.3-1.5 6.4-6.3 11.2l-.4.4-.5.4a44 44 0 0 1-45 8.5l5-13.3 1.6 14.1q-11.3 1.3-21.3-4.7-9.7-5.7-14.5-15.5l-.2-.4-.2-.3a68 68 0 0 1-5.2-20.8l-1.5-16.8 14-1.2-14 1.6-4.4-38.6a1350 1350 0 0 1-6-77.9q-1-19.3-1.8-39v-.6q0-5-.2-9.8l-.2-10.5h14.2l-14.1 1q-.6-7.5 1.3-15.1 1.5-6.9 6.5-11.5 4.5-4.2 11.2-6l3.4 13.8-13.4-4.5a25 25 0 0 1 1.9-4.1l.4-1.3.6-1.1a30 30 0 0 1 19.2-15.4 34 34 0 0 1 22 1.6q10.8 4.5 16.7 14.5A29 29 0 0 1 399 293l-13.3-4.7 13.7 3.6q-1.2 4.2-1.3 9-.2 6.9-.6 13.5l-14-.8 14 .5-1 34-14.2-.5-10-10q4.2-4.3 8.5-5.7l4.5 13.4-14.1-1.3a796 796 0 0 1 6.2-48.9l14 2.3h-14.2q0-6 4.2-10.3 3-3 7.2-3.9a14 14 0 0 1 12.9 4l4.4 4.3v8.5h-14.2l14.2-.5.7 20.8.8 20.7-14.2.5-5.6-13q23-10 49-22.7a713 713 0 0 0 57.4-31.3 27 27 0 0 1 23.4-3l-4.5 13.4 3.4-13.7q10.3 2.6 15.5 11.3 4.3 7.2 4.3 15.6H522l-10-10 1.8-1.8.8-.6q5.3-4 11.5-4 6.5 0 11.7 4.2 5.6 4.5 6.8 11.3 1 6.3-2.3 12.3-11.3 21.2-31 35.6a379 379 0 0 1-36.8 23.5l-10 5.4-6.7-12.5 8.5-11.3a39 39 0 0 1 5.3 4.5l-8.5 11.4-14 2.8q-1-6 1.9-11.5 2-3.9 6.1-6.5a17 17 0 0 1 11.3-3q6.9.8 11.4 6.3l-11 8.9 9.6-10.4a249 249 0 0 1 66.4 102.9 238 238 0 0 1 6.8 23v.3l.1.3q1.5 7.4 1 16.2-.5 8.1-5.1 13.8t-12.4 8l-3.8-13.7Zm-20-20 2.6-2.6 3.6-1q-1 .2-2 1.5t-1.2 2.5q.3-5.2-.5-9.1l14-2.8-13.8 3.3a211 211 0 0 0-14.3-40.7 212 212 0 0 0-50.7-71.2l-.8-.7-.6-.8q3 3.8 8 4.2 4 .4 7.1-1.6a11 11 0 0 0 4.1-11.2l7.3 36.3-29.6-22.2a39 39 0 0 1-5.3-4.5l-17.7-13.3 29-15.7q17.5-9.8 34-21.8 14.5-10.5 23-26.3a9 9 0 0 0-1 6 10 10 0 0 0 3.5 6.2q2.4 2 6 2a9 9 0 0 0 5.5-1.7L523 297l10 10-25.3 25.3v-34.2q0-.6-.2-1 .7 1.2 1.9 1.5l-.6-.1-.5-.2h.9l-.5.4-10.6 6.3q-22.4 13.2-49.1 26.2a1258 1258 0 0 1-50.2 23.3l-19 8.3-1.6-41.5-.7-21v-3h14.1l-10 10-.2-.1q2.4 2.3 5.5 3.3 3.4 1.2 7.2.5 4.2-.9 7.2-3.9 4-4.1 4-9.7v2.2a671 671 0 0 0-6 47l-.9 9.2-8.7 3a9 9 0 0 0 2.8-1.5l-.3.3-25.4 25.3 2.4-70v-.1l.5-12.6q.3-8.3 2.2-15.5l.1-.6.2-.5.4-1.6q-1-1.7-3-2.5a6 6 0 0 0-4.1-.3q-.8 0-1.5 1.6l-12.4-6.8 13.4 4.4a25 25 0 0 1-1.9 4.2l-2.4 7.4-7.6 1.8q.7 0 1.5-1a5 5 0 0 0 1.5-2.4 21 21 0 0 0-.6 6.4v1.1l.2 9.4q.3 5.4.2 11H342l14.1-.6q.7 19.6 1.7 38.7a1312 1312 0 0 0 6 76.2L368 469v.2l1.6 17q.5 6.3 3 12.1l-13 5.6 12.7-6.4q1.2 2.4 3.6 3.8 2 1.2 3.6 1l3.3-.4 3.2 1.1q4.5 1.8 8.5 1t8.5-4.5l9.1 10.8-10-10a5 5 0 0 0-1.2 5.4l-.3-1-.2-1q-.9-5.4-2.7-10.6L394 481l-.2-.7-.2-.8-2.3-12.1q-1.5-6.8-2.3-13.6-3.7-31.4-6.9-63.4l-1-10.5 9.9-4 8.7-3.6.3-.1 13.5-5 6.2 4.4a125 125 0 0 1 17.2 15.1l14 15.1a492 492 0 0 1 30.7 37.4q15 20.2 26.2 42.5l1.5 3v3.3a8 8 0 0 0 1 3.9l.2.4.1.3q.8 1.5 1.4 1.9.8.5 2.8.5 1.8 0 2.5-.8a5 5 0 0 0 1.1-3.6v-.6q-.2-4.2-3.8-13.3a295 295 0 0 0-10.2-23 485 485 0 0 0-36.6-61.9l21.6-18.3q17.5 19 30.6 40.5a246 246 0 0 1 22 45.8l-13.2 4.8 13-5.6 3.4 8.7q2.4 6.3 4 13.1a42 42 0 0 1 1.1 16.5 23 23 0 0 1-13.8 17.8L531 502l10 10a13 13 0 0 0-2-20.2q-5.5-3.6-11.7-1.8-3.4 1-6 3.5m0 0"/><path fill="#111" d="M771.7 478.4q.9 9.5-.3 18.8-1.2 10.9-6.9 20.6a37 37 0 0 1-20.4 16.6 28 28 0 0 1-31-7.3l10.1-10-3.2 13.8a35 35 0 0 1-18.3-11 31 31 0 0 1-8.1-21.3h14.1l-14.1.3q-1.1-46.7-12.8-93.1v-.2l-5.4-24.2-5.3-23.6 13.8-3 13.4 4.6a795 795 0 0 0-13 41.3l-10.5 38a1490 1490 0 0 0-13 59.1l-.1 1-.3.9a16 16 0 0 1-3.9 6.3 15 15 0 0 1-15 3.6 15 15 0 0 1-6-3.7 14 14 0 0 1-4.2-10.3h14.1l14 2a54 54 0 0 1-1.5 7.2q-.8 2.4-1.4 5.2l-.2.9-.4.9q-2 5.3-5 9.5-5.1 7.5-14.9 10h-.3q-9.7 2.2-16.5-2.9l8.5-11.3v14.2q-8.4 0-14.1-4.7l8.8-11 7.8 11.8q-6.8 4.5-14.3 2a16 16 0 0 1-10-9.4l13.1-5.6-12 7.7a50 50 0 0 1-5.5-11.7q-1.4-4.5-2.7-9.5l13.8-3.4-13.7 3.8-16.2-57.8a1114 1114 0 0 1-10-38.3l13.8-3.3-13.4 4.5-1.5-4.5-1.7-5.5 13.6-3.9 14.1-.7q1.2 23.9 2.1 48.5 1 24.8 1.4 48.6l-14.2.3 14.1-.7q.5 9.4-.6 19.3a29 29 0 0 1-5.8 14.9q-4.6 6-12.4 9.5a21 21 0 0 1-11.2 2q-7.1-.9-11.8-6.4l10.7-9.2-10 10a20 20 0 0 1-3.8-5.2l12.7-6.3 4.5 13.4a28 28 0 0 1-14.6 1.1q-7.5-1.5-13.1-7.1l-.2-.2-.2-.2q-7.5-8.2-10-19.7-1.5-8.1-2.4-15.6l14-1.5-14 1.9a520 520 0 0 1-5-66.5q-1-33.7-1.1-67.6h14.1l-14.1.4-.6-33a183 183 0 0 1 3-35.7l.2-.4v-.4q1.5-6 6.7-9.5 4.2-2.7 9.4-2.7t9.3 2.7q5.2 3.5 6.7 9.5l.1.5.1.6q2 12.3 2.5 25.9l.7 24.7-14.1.4V324q13.6 0 15.2 17 0 1.5.2 1.9 0-.7-.4-1.6a13 13 0 0 0-5.2-6.5q-3.5-2.5-8-2.5v14.1h-14.1v-8.6q0-6.6-.2-13L538 311h14.2l-14.2.9q-.3-6.3-.2-13.1a41 41 0 0 1 4.3-17.2l12.7 6.3h-14.1q0-7.2 3.7-13.3 3.4-5.5 9.7-9l7.1 12.1-7.5-12q14.6-9 30.6-4.1L580 275l2.8-13.9a35 35 0 0 1 26 22l-13.3 5.1 11-9q6 7.4 7.2 17.4l1.8 13.3 2.3 14.2q4.8 28.8 10.9 60.4 6 31.5 12.3 60l-13.8 3-13.8-3.3q3.8-15.6 7.1-31.4 3.4-16 7.3-32 5.2-24.3 11-48.8 5.4-23.7 8.7-47.6l.1-.8.2-.7a25 25 0 0 1 7.5-12.4A24 24 0 0 1 669 264l1.7 14-3.8-13.6a34 34 0 0 1 27.5 2.9l-7 12.2-8.4-11.4a30 30 0 0 1 17.8-5.8q11.6 0 19.2 8.5l-10.5 9.5 10-10q10.4 10.3 16.7 23.4 6 12.5 9 25.7a673 673 0 0 1 5.5 26 1518 1518 0 0 1 6.4 35.3q1.2 5.7 1.6 11.4l-14.1 1 13.6-3.7a211 211 0 0 1 4 17.8 1490 1490 0 0 1 7.2 36.8l-13.9 2.8 13.8-3.2 3.7 16.7q1.8 9 2.7 18Zm-28.2 2.6q-.7-7.6-2.3-14.8-1.6-8-3.5-16.2v-.4a1620 1620 0 0 1-7.3-37.2A179 179 0 0 0 727 397l-.3-1.3-.2-1.4q-.3-4-1-8.2l-1.8-10q-2.2-12.8-4.7-25.3-2.4-12.4-5.4-25a91 91 0 0 0-6.8-19.6 58 58 0 0 0-11.3-15.8l-.2-.3-.3-.3q.9 1 1.9 1-.8 0-1.1.3l-7.5 5.4-8-4.6q-2-1.1-5.7-.2l-1 .3-1 .2a4 4 0 0 0 2.2-.9q.4-.4.7-1.5l-13.7-3.4 14 2a560 560 0 0 1-9.3 50.1q-5.6 24.3-11 49l-7 31.4-7.3 32-27.6-.2q-6.5-28.9-12.6-60.8-6-32-11-61.2l-2.2-14.2q-1.2-7.3-2-14.2a6 6 0 0 0-1-3l-1.5-1.8-.8-2.2a7 7 0 0 0-2-3q-1-.9-3-1.3l-.8-.2-.7-.2a8 8 0 0 0-7.2 1.1l-.1.1-.2.1-.4.3.4-.5q.6-.9.6-1.8v3.4l-1.5 3q-1.3 2.4-1.4 5.4 0 5.4.2 10.3v1l.2 13 .2 13.8v22.8h-14.2a14 14 0 0 1-11.5-5.9 15 15 0 0 1-2.8-6.8l-.6-5.3v.3q.4 1.5 1.5 3.1 1.3 2.1 3.4 3.6 3.6 2.7 8.2 2.7H537l-1.1-38.5a164 164 0 0 0-2.1-22l14-2.4-13.8 3.5q1.2 4.5 5.1 7.2 3 2 6.4 2 3.3 0 6.3-2 4-2.7 5.1-7.2l-13.7-3.5 14 2.6q-3 15-2.7 30.1.2 16.6.6 32.7v.3a1993 1993 0 0 0 2.6 98.5 494 494 0 0 0 3.3 31.8v.3q.8 6.2 2.1 13.1a12 12 0 0 0 3 6l-10.4 9.6 10-10q-.4-.3-1.3-.5h-.6l.6-.2 11.7-4 5.4 11q-.6-1.2-1.5-2.1l.4.4.4.4q-2.5-3-6.4-3.3-2.2-.2-3.9.4 1.5-.6 1.7-1.1l.2-.6q.8-7.8.5-15v-.4q-.4-23.7-1.4-48l-2-48.2 27.7-4.6 1.3 4.3 1.8 5.1v.6A1013 1013 0 0 0 610 436l16.3 58v.1l2.2 7.9q.8 2.3 2.4 5l.7 1 .4 1q-.6-1.5-1.7-2.8a12 12 0 0 0-5.4-3.5 12 12 0 0 0-10.4 1.2l8.7-5.7 8 6.4a8 8 0 0 0-3.5-1.6h4.7l3.8 2.9a10 10 0 0 0-6.7-2.1l3 13.8-3.3-13.8h.1l-.3.2a5 5 0 0 0-1.5 1.4q1.2-1.8 2.1-4l13.2 5.2-13.8-3.4 1.7-6.1.7-3.4 28.2 2q0-5.7-4-9.7a13 13 0 0 0-13-3.4 13 13 0 0 0-9.1 8.2l13.4 4.5-13.9-2.6q2.3-12.3 6-28.8 3.6-16.3 7.5-32.2 4.1-16 10.6-38.6 6.5-23 13.5-42.9l16.3-47 16.1 72.2 5.3 24-13.8 3 13.7-3.4q12.5 49.4 13.7 99.4v.3q0 1.5 1 2.5 1.5 1.7 3.5 2.2l4 1 2.8 2.8 1 .8h-.3l.5-.2q4-1.5 5.6-4.1 2.8-4.6 3.3-9.7.8-6.5.2-12.8ZM613.9 371.4l2.2 5.5-11 8.8-14 2.6-6-33-6.2-33.7v-.7a90 90 0 0 0-2.7-15.2l13.7-3.4 7.9 11.7q-4.3 3-9.7 4.3l-3.5-13.8h14.2q0 4.2-1.9 7.9l-12.6-6.4 13.7-3.2 8.2 34.3 7.8 35-13.9 3 10-10q5 5 5 12h-14.2Zm-26 11.2-1.2-2.7V377a11 11 0 0 0 3.4 8.1l-3-3-.8-4q-3.7-17.6-7.7-34.4l-9.3-39.4 2.3-4.6q-1 2.3-1.1 4.8v-11l10.7-2.7.9-.3 16.7-11.2 4.9 19.5a138 138 0 0 1 3.3 19.6l-14 1.2 13.9-2.5 6 33 6 33-25 11.5a28 28 0 0 1-4.4-8zm56.6 48.4q5.4-21.7 11.5-43.5t13.4-43.3l13.4 4.5-13.9 2.8-.7-3.8-.4-1.3 13.1-5.2 13.5 4.4a857 857 0 0 0-20.8 74.7l-13.8-3.3 14 1.3q-.4 5.1-1.5 10.2l-1.6 8-14-2.5 10-10a12 12 0 0 0-8.8-3.7h.4v14.1Zm24.9 17.6h-11.5q-6.6 0-11.2-4.6l-5.2-5.2 1.3-7.3 1.8-9q.8-3.5 1-6.7l.2-1 .2-1a1015 1015 0 0 1 21.5-77l12-37.1 14.6 36.2q1.2 3 1.8 6.3l1.5 7.5-1.2 3.6q-7 20.7-13 41.9-6 21.3-11.2 42.6Zm0 0"/><path fill="#111" d="M885.6 520.3q-6-2-9.8-8.1a46 46 0 0 1-4-8q-3-7.7-6.4-18.9a472 472 0 0 1-6.2-22.5l-5.1-20.4q-2.4-9.5-3.2-14.1l13.9-2.6.2 14.2-29.5.4-.2-14.2 13.8 3.4q-4 16.5-7 32.9-3 16.1-4.4 32.9l-14-1.2h14q0 7.3-4.6 12.2a17 17 0 0 1-12.7 5.3q-8.2 0-13.2-6-4.5-5.4-3.7-13.1 1.5-17.2 4.5-35 3-18 8.6-35.7l13.4 4.3v14.2h-3.4V426l13.7 3.8q-1.7 6.3-3.5 15.4l-3.6 18.7-2.8 15.4-1.1 6.2-14-2.5 14 1.9-2.2 17-14-1.9 14 1.2A38 38 0 0 1 813 530q-12.1 9-26.9 7.3t-24.5-13.7a39 39 0 0 1-7.4-31.8q2.2-16.8 5.4-33.8 3-17 7.4-33.8l13.7 3.5 2 14a90 90 0 0 1-12.2 1h-21l7.8-19.5a8 8 0 0 0-.2 5.3l13.8-3.4-3.5 13.7q-15-3.7-22.1-16.7-6.7-12.1-3.8-26.5a45 45 0 0 1 15-24.7q12-10.5 33-13.8l2.1 14-13.8-3q4.2-19.3 9.2-37.9 5.2-19.1 12.7-37.4v-.2l.2-.2 7.6-16.6a73 73 0 0 1 13-19.2q10.3-11 25.9-11v14.1l-1.1-14.1a30 30 0 0 1 18.3 4.7q8.4 5 12.4 13.3l-12.6 6.3.6-14.1q13.9.6 23.2 10 9 9 10.3 23.3l1.9 22.6 2.2 22.5-14 1.4 10-10a13 13 0 0 0-9.3-3.8V336l-14.2-.6 1-19.7q.6-10 1.8-20l14 1.8h-14.1a15 15 0 0 1 2-7.7 14 14 0 0 1 4.6-4.5q5.2-3.3 11.2-1.8a14 14 0 0 1 9.8 9.4 15 15 0 0 1 .8 4.3l.4 6 1.4 21.6 1.5 26q.6 12.6 1.8 20.7l-14 1.8 1.4-14a40 40 0 0 1 37 33.2q2.2 12-2.2 23.6a40 40 0 0 1-16.7 19.9l-7.5-12 13.8-3.2a1416 1416 0 0 1 8 38q4.2 21.3 6.6 38.8a47 47 0 0 1-3.7 28 26 26 0 0 1-20 14.7q-12 1.5-22.7-7.3-8.9-7.5-13.6-21.5l13.5-4.5Zm9-26.8 6.7 2.2 2.2 6.7q2 6.4 5 8.8l1.4 1h-.7q-.9 0-1.6.6h-.1l.5-.8q.5-.8.7-2.9a36 36 0 0 0-.2-7.9q-2.2-16.6-6.3-37-4-20.8-7.8-37.2l-2.2-9.9 8.5-5.3a12 12 0 0 0 5.2-5.8q1.6-4.2.8-8.5-.6-4-3.8-7-2.5-2.6-8.2-3.2l-11.2-1.1-1.4-11.1q-1.2-9.2-2-22.7l-1.5-26-1.8-27.4v.3a14 14 0 0 0 1.6 4.7q3 5.3 8.8 6.8 6 1.6 11.2-1.7a14 14 0 0 0 6.6-11.7v.8l-.1.8q-1.1 9-1.6 18.3l-1 19.1-.5 13.6h-13.6q-6.3 0-10.8-4.5l-3.5-3.6-2.8-27.5-2-23q-.2-3.9-2-5.7-1.6-1.6-4.5-1.8l-8.3-.3-3.7-7.5a5 5 0 0 0-2-1.8l-1.2-.6h-1.1a7 7 0 0 0-5.4 2.2 44 44 0 0 0-7.8 11.8q-4.2 8.8-7.5 16.2l-13-5.8 13.2 5.4q-6.9 16.5-11.5 34-4.8 18-9 36.5l-2 9.5-9.6 1.5a36 36 0 0 0-18.4 7q-5.2 4.4-6.1 9.2-.9 4.1.8 7.1 1.1 2.2 4.2 3l8.2 2 2.1 8.2q1.5 6-1 12.1l-13.1-5.2v-14.2a55 55 0 0 0 8.2-.6l21-3-5.3 20.5q-4 15.7-7 31.9-3 16.4-5.2 32.7-1 7.1 1.3 9.7a9 9 0 0 0 6.1 3.7q3.4.5 6.4-1.8 2.5-1.9 3-8.4v-.4l2.4-17.6 1.2-6.6 2.9-15.5 3.6-19q2-10.2 4-17.5l3-10.3h33.5l-5.9 18.5a226 226 0 0 0-7.6 31.8 453 453 0 0 0-4.2 33.4q.4-4.2-2.7-8a12 12 0 0 0-8.6-4.3q-4.5 0-7.9 3.6-3 3.2-3 7.2v-1.3q1.5-18 4.7-35.4 3-17.2 7.4-34.7l2.6-10.6 52.4-.7 2.1 11.8 2.8 12.3 5.1 20.4a444 444 0 0 0 11.5 37.9q1 2.3 1.5 3l-.8-.8q-1.7-1.7-4.2-2.5m-63-130.4q5.2-.9 13-1.2 6-.1 9.3-.5l1.4 14.1-14 2.2-1.7-14.7-2.3-19.1q-1.2-9.8-3-17.9l13.9-3 13.6 4-7.9 28q-3.3 12-5.8 24.8l-13.9-2.8Zm5.1 27.9-20.5 3.7 4.1-20.5q2.8-13.6 6.3-26.6l8-28.5 27.4 1q2 9.2 3.4 20.2 1.5 10.5 2.3 19.8l1.6 13.3 2.3 14.7-14.8 1.5q-4.4.5-11.4.6-5.6.2-8.7.8m0 0"/><path fill="#111" d="M1158.3 489.4q-7 16.5-23.4 26.9A98 98 0 0 1 1105 529a138 138 0 0 1-32.8 3.6q-15.7-.2-31.8-2.6a304 304 0 0 1-29.4-6l3.6-13.7 12.8 6a25 25 0 0 1-16.6 14.5l-.7.2-.7.1q-6.6.9-12.9-1.7l5.6-13 10 10a22 22 0 0 1-16 6.7V519l1.4 14a38 38 0 0 1-23-5l-.2-.2-.2-.2q-9-6-13.1-14a59 59 0 0 1-5.6-15.3l13.9-3.1-5.5 13q-9.2-3.7-18.2-7.8-9.3-4.1-18.4-8.9a35 35 0 0 1-17.8-23.2 36 36 0 0 1 4.4-28.1l12 7.4-12.2-7q7.5-13 22.4-17t27.8 3.4l.8.5 2.2 1.6-8.5 11.4-14 1.5q-.3-2.5-.9-5l-1.6-6.7v-.4q-6-31.5-12.6-63l-13-62.9 13.8-2.9-13.4 4.5-.8-2.3-.6-1.3-.4-1.4a24 24 0 0 1 4.4-22.3 27 27 0 0 1 17.3-10.4l2.2 14-3.5-13.8a42 42 0 0 1 8.8-1.1v14l-13.2-5q3.7-10 13.7-15.2 7.5-4 16.3-5.3 8-1.2 13.9-.7a78 78 0 0 1 40.5 14.8q15.4 11.1 29.2 24.7 14.8 14 29.5 28.9a723 723 0 0 1 28.7 30.8l-10.6 9.3 10-10a206 206 0 0 1 19.9 23.2 424 424 0 0 1 14 19.7q7.3 10.7 13 22.5l-12.8 6.2 12.6-6.5q7.5 14.5 12.2 31.3a58 58 0 0 1-2.7 39.7Zm-26-11.2a30 30 0 0 0 1.4-20.7q-4-14-10-26l-.1-.2-.1-.2q-4.9-10-10.9-19a404 404 0 0 0-21.6-29q-4.5-5-9-9.7l-.3-.3-.3-.3a693 693 0 0 0-27.5-29.6q-14.4-14.6-29-28.5-12.6-12.2-26.3-22.1a51 51 0 0 0-26.4-9.5A33 33 0 0 0 958 286l-.7.5v-.2l-3.4 9H944l-.5.1-1.4.3-.6.2h-.7l1-.3-.3.2q.4-.6.6-1.4v-1l-13.6 3.7 12.6-6.3q.9 1.6 1.6 3.7l1 3 13.2 63.7q6.6 31.7 12.7 63.5l-14 2.6 13.9-3 1.5 6.4q.9 4 1.4 8.3l3.6 32.5-27.7-20.8 8.5-11.3-7 12.3a8 8 0 0 0-6.5-.7 8 8 0 0 0-5.2 3.7v.3l-.2.2a8 8 0 0 0-1 6.6 7 7 0 0 0 3.4 4.7q8.4 4.4 16.8 8.1l17.6 7.6 6.8 2.9 1.6 7.1q1 5 2.8 8 1 2 4.2 4.2l-8 11.7 7.5-12 2 .8q1.5.3 3 0h1.5q-2.5 0-4 1.5l6.8-6.7 8.8 3.7q-1-.4-2.3-.2l2 14-3.4-13.7a5 5 0 0 0-2.5 1.4l.2-.5 5-10.6 11.4 2.9q12.6 3.2 26.5 5.4 14 2 28 2.3 13 0 26-2.9 10.5-2.5 21.1-9.1 9-5.6 12.5-14Zm-204-145 .8 1.6-.8-1a13 13 0 0 0 10.6 4.6 14 14 0 0 0 11.2-6.2 13 13 0 0 0 2.2-8.1v.2l-13.9 2.5 13.7-3.4q5 19.8 9.4 39.4 4.2 19.3 9.1 38.7l10.2 40.4-13.7 3.5 5.3-13.2a34 34 0 0 1 7.8 4.3L974 449l-13.5 4.2-3-9a98 98 0 0 1-3.3-11.2l13.8-3.2-13.7 3.9-4.2-16.1-5.7-23.2q-3-12.6-6.2-24.9l-5.8-22.4-4-14.3 13.5-4.2Zm27-9v.3l4.4 15.5 5.8 22.5q3.3 12.6 6.3 25.4a1610 1610 0 0 0 9.7 38v.4l.1.4q1 4 2.4 8 1.9 5 3.4 10.3l9.8 31.6-29.6-14.8a44 44 0 0 1-5.8-3.3l-6.7-2.7-12-47.4-9.3-39.4a1575 1575 0 0 0-9.1-38.8l-.1-.4-.1-.5a17 17 0 0 1 2-12.8 14 14 0 0 1 11.6-6.5q4.5 0 8.4 2.4 2.4 1.5 4.3 4 3.3 4.5 4.4 7.8M1090 451.6l-8.5-13q-4-6.2-8.3-12a254 254 0 0 0-36.4-39.6l-.2-.2-.2-.2q-19.6-18-44.6-32.4l7-12.3-6.6 12.5-7.2-3.7 6.6-12.6 13.9-2.9a1864 1864 0 0 1 17.5 95l3 16.6 3 17.3-14 2.4 4.7-13.4q8.4 3 17.3 5.7a167 167 0 0 0 28.9 6.5q4.2.7 10.7 1l-.8 14.2v-14.2q6.3 0 10.6-.3a53 53 0 0 0 15.4-3.6q1.9-.8 3.2-2l9.3 10.6-14 1.4q-.1-1.3-.7-2.3-1.2-2.8-3-5.8l-.2-.5-.3-.6a102 102 0 0 0-6.2-11.8Zm23.9-15.3a117 117 0 0 1 8 15.4l-12.8 5.7 12.3-6.8 3.9 7.4q2.5 5.4 3.1 11.6l.8 7.3-5.5 4.8q-4.8 4.1-10.8 6.7-5 2.2-11 3.5-7.2 1.8-13.3 2.3-5.4.4-12.8.4h-.7a139 139 0 0 1-26.6-3.6q-10.2-2.1-20-5.1l-18.1-6-7.9-2.8-4.4-25.3-3-17a2312 2312 0 0 0-17.3-93.8l-6.2-29.4 34 17.9.2.1a270 270 0 0 1 49.8 36.3l-9.6 10.4 9.2-10.8a252 252 0 0 1 40.6 44.2 263 263 0 0 1 9.4 13.4l8.5 13Zm0 0"/><path fill="#111" d="M1146 306.3q19.8-10.3 41.3-17.5 20.9-6.9 41.7-12.3l9-2.4h.5l23.6-4.5q12.5-2.1 25.4-3l.9 14.1-2-14q3.7-.5 7-.5h5.2l3.4 28-22.3 5.4-22.5 5.5h-.2q-19 4.2-37.9 8.8-18.5 4.6-36.8 10.8l-.3.1-.2.1a137 137 0 0 0-23.3 9l-6.2 3-6.2-3q-3-1.7-5.2-4.3a15 15 0 0 1-3.3-9.4q0-6.4 4.9-11.3l1.5-1.6Zm13 25.1-6.5-12.5 10 10q3.4-3.4 3.4-8.7a13 13 0 0 0-7-11.7l-6.4 12.6-6-12.8a227 227 0 0 1 27.3-10.6l4 13.6-4.6-13.4q19.5-6.6 39.1-11.5l38.7-9 3 14-3.3-13.8 22.2-5.5 22.3-5.5 3.4 13.8v14.1h-5.1l-3.1.3h-1.1q-11.3.8-22.2 2.7l-23.2 4.3-2.7-13.9 3.6 13.7-8.7 2.3a612 612 0 0 0-39.9 11.8 256 256 0 0 0-37.2 15.7m219.1 144.2a19 19 0 0 1-5.1 9.6q-4.5 4.4-10.7 5.2l-1.8-14 2.5 13.9a550 550 0 0 0-80.4 21.2l-19 6.8q-9.2 3.3-18.2 7.2l-2.7 1.2h-3.4v-14.1l10 10a16 16 0 0 1-7.7 4.3l1.4-.5a69 69 0 0 1-7.9 3.3l-4.6 2-6.3-12.7 10 10-1.3 1.4-1.2.7a57 57 0 0 1-11.5 5.3q-6.8 2.5-12.8 4.2l-6.3 1.7-2.3.3-4.4.4v-14.2l2.3 14q-6.8 1-13.7 0a22 22 0 0 1-10.7-5q-4.2-3.4-6.6-8.7l12.8-6-12.6 6.4a21 21 0 0 1-1.5-15l13.7 3.3-5.4 13.1a36 36 0 0 1-18.2-16.7 31 31 0 0 1-2.1-26.2l13.3 5-14 2q-1.6-10-2.6-20.6l-1.7-20 14.1-1.1-14 1.4-4.6-45.3-4.5-43 14-1.5-10.4 9.5a36 36 0 0 1-9.6-29.5q1.7-16 14.2-27l9.3 10.8-12.7-6.3.8-1.5 3-6.1 4.7-2.1a255 255 0 0 1 25.6-9.6l4.2 13.5-4.5-13.4q19.5-6.6 39-11.5 19.5-4.7 39-8.6l2.8 13.9-3.1-13.8q14.8-3.4 29.3-7.3l29.6-7.7 3.1-.8 3.2.6 2.4.3q4.7.5 8.7 2.4l-6.4 12.7 5-13.3 8 3 1.6 1.2a67 67 0 0 1 6 5l3.7 2.7 1.3 4.3q2.3 7.3 3.2 14.3 1 8.3-.5 16.2l-1.7 8.3-27 8.1q-6 1.9-12.9 3.8l-13 3.8-3.9-13.6 6.4 12.7q-4.5 2.1-8.6 2.2v-14.2l3.6 13.7-16.4 4.6-19.3 5.7a477 477 0 0 0-22.4 7.2l-.9.5-1 .3a511 511 0 0 0-34.6 13.1l-5.7-13 10 10-.7.8-10-10 13.8-2.8q.6 2.4 1.1 7.2l1.1 7.8q.8 5 .8 7h-14.2l-5.5-13 31.5-13.4q16-6.7 32.5-12.9l.7-.3.8-.1a1355 1355 0 0 0 36-9.7l.5-.1 5.3-1.3q4.5-.9 9-1.2l5.8-.5h.4l.4-.1q9-.5 17.2 1.2a29 29 0 0 1 19.7 15.1l-12.3 6.9 10-10a17 17 0 0 1 4.1 6.7l-12.6 6.3 11.8-7.8q1.7 2.6 2.7 5.6l.8 2.3-13.4 4.4 10-10a13 13 0 0 0-9.3-3.7h3.4l3 1.5q11.7 5.9 14 19.7l-14 2.4 13.9-3q2.2 10.3-3 20.2a32 32 0 0 1-14.4 14.3l-.3.2-.3.1q-8.1 3.6-16.7 4.3-5.2.6-10.7 1.8l-.4.1h-.5l-13.5 2.5q-6.3 1.2-12.6 3-13.2 3.6-26.4 7.9a296 296 0 0 0-40.8 16.4q-7.6 3.7-15.3 7.8l-6.6-12.6 14.1-1.3 2.3 25.2v2.2h-14.1l-7.9-11.8 2-1.4 1-.4q6.7-3.1 13.5-5.8 6-2.4 11.7-5h.3l32.4-12.6 5.1 13.2-5.8-13q4.7-2 9.7-3.8l8.3-3 4.8 13.4-5.1-13.2a617 617 0 0 1 27.8-10l.2-.1 15.2-4.7.4-.1q1.8-.5 3.8-1.3 4-1.8 8.3-2.9h.2l.3-.1a38 38 0 0 1 44.5 21.3 84 84 0 0 1 7.5 20.9q2.4 10.5 2.8 19.7l-14.1.7 14-1.1a30 30 0 0 1-3.2 16.5 34 34 0 0 1-9.3 11.2l-8.7-11.2Zm-27.6-6.1 1-5 4-3.1a6 6 0 0 0 1.7-2q.2-.4.1-1.3v-.4q-.4-6.6-2.1-15-1.7-7.5-5-13.8-2.2-4.4-5.8-6.5-2.2-1.4-7.8-.2l-2.9-13.8 3.4 13.7q-1.8.4-3.8 1.3a52 52 0 0 1-8.2 2.8l-3.5-13.7 4.2 13.5-14.7 4.6-4.2-13.6 4.5 13.5a574 574 0 0 0-26.6 9.6h-.3l-8.6 3.2q-3.8 1.2-7.3 2.9l-.4.1-32.4 12.6-5.2-13.2 5.7 13q-6.2 2.7-12.8 5.3-5.7 2.3-11.8 5.1l-6-12.8 7.9 11.8-23.2 15.4v-28h14.2l-14.1 1.4-3.2-34 8.4-4.4q8.2-4.4 16-8.1 8.2-4 16.7-7.5 13.9-6 27.9-10.5 13.7-4.4 27.5-8.3 7.5-2 15-3.4 7-1.5 14-2.5l2.4 14-3.2-13.9q7.4-1.7 14.6-2.4 3.9-.3 7.8-2l5.7 13-6.3-12.7q1.2-.5 1.9-2 .4-.9.4-1.3v-.3l-.1-.3-.1-.5.2.4q.4.6 1 1l6.4-12.7v14.2q-6.1 0-10.8-4.5l-2.3-2.4-1.8-5.4.5 1-.5-.7-.4-.8q-1.1-2.1-1.6-4.4.8 3 2.7 5.1l-1.4-1.4-1-1.7-.8-1.3.2.1q-4.6-.9-10-.6l-.7-14.2 1.5 14.1-7.3.6-4.3.6-4.9 1.2-3.1-13.8 4 13.6a787 787 0 0 1-37.2 10l-3.5-13.8 5 13.3q-16 5.9-31.3 12.4l-51.3 21.7V380l-.4-2.8-2-13.6-1.4-7.5 8-8 2.5-1a385 385 0 0 1 37-14l4.5 13.3-6.3-12.6q2.4-1.2 10.1-3.8 7-2.4 17-5.3l19.2-5.6q9.7-3 17.2-4.8l1.7-.5h1.9q-2.6 0-4.1.7l1.2-.6 14.3-4.1 12.4-3.7 19-5.7 4 13.6-13.9-2.8q.7-3.4.2-7-.5-4.5-2.1-9.4l13.5-4.2-8.5 11.3a66 66 0 0 1-6-5l8.5-11.2-5 13.2-6.7-2.5-.7-.3q.8.4 1.5.4-2.9-.2-5.5-.7l2.8-14 3.5 13.8q-14.7 3.7-29.3 7.7-15 4-30.4 7.5h-.4a786 786 0 0 0-37.6 8.4q-18.5 4.6-36.8 10.8l-.3.1a215 215 0 0 0-22.7 8.5l-5.7-13 12.6 6.4-.7 1.5-2 4-2.2 2a13 13 0 0 0-4.6 8.4q-.5 4.4 2.5 7.5l3 3.5 5 47.7 4.6 45.4v.2l1.7 19.6q.9 9.6 2.4 19l.5 3.6-1.2 3.4q-.5 1.2.5 3 1.5 3 4.1 4l11.2 4.7-3 11.8q.6-2.1-.6-4.5v.2l.2.2q-.3-.5-1-1a6 6 0 0 0-2.8-1.4q2.2.4 4.5 0l1.1-.2h1.6l1.4-.2 2 14-3.8-13.6 5.5-1.5a141 141 0 0 0 16-5.7l8 11.8-10-10 2-2 2-1q3.8-2 7.8-3.4l4.6-2q2.3-1 4.4-1.6-3 .8-5.4 3.2l4.1-4.2h6.3v14.2l-5.7-13q10-4.4 20-8l19-6.7q20.6-7.5 42.2-13 21.5-5.7 42.8-9.5h.4l.3-.1a10 10 0 0 0-5.8 2.9 9 9 0 0 0-2.4 4.3M1277 406l-17.6 5.2-17 5.5-.4.2-.6.1-10.5 3-11.1 3.4-3.9-13.6 14 2.4q-2 11.5-10.9 19l-9.1-10.9-6.5-12.6q14.6-7.4 29.8-13.4 14.5-5.6 28.4-11.2l5.3 13-6.4-12.6q4-2 8.3-3.4l4.5 13.4-13.4 4.5-.4-1.1 13.4-4.5Zm5-31.1 9.2 27.6-13.4 4.5q-2.5.8-4.6 1.8l-.5.3-.5.2-28.7 11.4q-13.8 5.4-27.2 12.2l-15.6-23.4q1-.8 1.3-2.2l1.5-8.7 8.5-2.4q5.2-1.4 10.5-3.2l11.7-3.3 3.6 13.7-4.7-13.4q9-3.1 18.2-5.9l17.5-5.3Zm-91.2 134a63 63 0 0 0 11 0h.2-.1q-1.6.3-3.3 1l3-1.4h3.4q-5.2 0-9 3.8l1.7-1.7 6.6-3.3q1.8-.8 3.2-1.7l.4-.3.5-.2 17-8.8 6.7 12.4H1218v-.8h14.1l5.1 13.2-10.5 4-10.6 3.7-10.5 3.9q-6 2.3-12.5 4l-3.6-13.7Zm-2.6 28.2-2.4-27.7q5-1.4 9.8-3.2 5.6-2.2 11-4l10.6-3.8 9.9-3.7 19.2-7.4v29.8l-7.4 4-17.8 9.3-6.3-12.7 7.3 12.2q-2.4 1.5-5.2 2.8l-4.5 2.2-6.3-12.6 10 10q-4.5 4.5-11.1 4.5v-14.1l6.3 12.6q-2.7 1.4-7 1.8a90 90 0 0 1-16.1 0m0 0"/><path fill="#efe0c1" d="M75 300.4a10 10 0 0 1 .7-7.6q1.9-3.7 3.8-6.4 3.7-5.7 9.4-9.4 1.5-1.5 2.3-2a58 58 0 0 1 16-7.8 31 31 0 0 1 17.2-.4q7.5 1.8 13.2 6.2t8.4 12q1.1 3-.4 5.7-1.5 2.6-3.7 4.5a53 53 0 0 1-20 9 19 19 0 0 1-9.1 5.5 38 38 0 0 1-11 1.7 52 52 0 0 1-17.3-3q-2.7-.7-5.7-3a10 10 0 0 1-3.8-5m25.2 9q8.3 0 11-1.7t2.3-1.7q-3.4.9-7.6 1.2-4.2.4-10.6-.8-8.2-1.8-11.1-7.5a14 14 0 0 1-.2-12.1q-2.7 3-4.9 7.2-1.1 2.6-1.1 4.7 0 2 2.2 4 3.8 3 7.2 4.1 5.6 1.9 12.8 2.6m39.3 188.8q-2.7 4.6-8 6.4.4 2-.3 4-.7 2.1-3.4 3.2a25 25 0 0 1-27.6-5l-.7-1q-2.7-1.2-5.7-3.4-6-5.7-7.3-13.6-1.4-8-2.5-15.9-2.6-21-4-42t-.9-42.2v-20.5q0-10.4 1.1-20.6.8-5.3 2.7-10.4 1.8-5 5.3-8.5l3-3.8 10.7-6.6q6.7-3.9 13-4.5 6.5-.5 9.5 7 1.9-.4 3.8.7t2.2 3.8q0 10.6-.3 20.8a565 565 0 0 0 0 41.3l1 25.3q0 2.4.5 5.1.3-.4 1 3l.9 6.6q.3 3.3.7 3.2a1868 1868 0 0 1-.5-63.4q0-16.5.9-29.8 0-.7 1.3-1 1.3 0 1.3.2-1 40.5 1.2 80.6 2.3 40.2 7.5 80.6.4 2.6-2.6 2.9t-3.8-2.5m-41.9-154a100 100 0 0 0-4.7 27l-1.3 27.3v4.6l3 27.2h1.1q0-12.9-.2-25.5a579 579 0 0 1 1.1-45.3q1-10 4-19.1h-.4q-2.6 1.9-2.6 3.8m213.7 175.2q-3.4 2.3-7.6 0-7.5-3.4-10.2-11.2t-4.1-14.9l-2.3-12.8L221.4 363l-3-4.2-3-4.2q.3 19.3.2 38.6l-.2 38.5q.7 11.2 1 22.6a1370 1370 0 0 0 1.3 36.5 41 41 0 0 1-1.7 14.5q-2.2 6.4-10 7.5a17 17 0 0 1-9.3 7.8q-5.9 2-12.3.2-6-1.5-10.5-7.2-1.6-23.8-2.5-47.6a6061 6061 0 0 1-2.8-86.2q-.4-19.5-1.1-38.7l-.6-25q-.3-12.4.6-24.5 3.8-3 7.1-3.4 0-4.6 3-8.7 4.6-5.7 10.2-5.5 5.7.3 11.7 4.2t11 9a115 115 0 0 1 7.5 8.6q9.9 12.8 18 26.2t15.6 27.4a629 629 0 0 1 24.2 45.3q.8 1.5.8 3.7l6 11.7q-1.5-14.3-4.2-29l-9-49.5q-2-10.2-5-20.4l-2.8-10.7q-1.2-5.5 1.7-11.2 2.7-4.5 6.5-6.8 0-.3.2-.3l.1-.4a11 11 0 0 1 10.4-6.4q7 0 12 3.4 1 .3 2.6 1.8 1 5.4 2.6 10.8l3 10.8q4.6 16.3 7.6 33.4t5.6 34.2q5.7 34.3 9 69.4 3.5 35.1 5.8 69.9-3 4-7.6 7.1t-9.8 3m21.1-14q-.8 0-1.5 1.1-3.8-54-10.4-107.8t-18.3-106.2q-.7-2.3 1.2-4.2 1.5-1.9 4.1-1.7 2.7.2 3 3.2 10.3 49.1 16 99.1 6 50.1 5.6 100.2.3 2 .5 7 .1 5.1-.2 9.3m-165.3-27.6q-1.5-20-2.3-41.7l-1.5-42q-.8-20.1-1.1-40.5l-.8-40.8a45 45 0 0 1 3-19.6q-.3 9-.2 18.1l.6 18.2 1 39.2.9 39.7 3.4 84.9-1-1.7q-1-1.6-2-13.8m42.3-18.5-1.2 1.2h-.2l-.5.3-.4 22.7q0 4.5 1.7 10.8 1.6 6.2-.2 13.3 3.7-6.3 3-12.8l-.6-11q0-5.6-.9-11.3a113 113 0 0 0-.7-13.2m322 44.4q-.3.4-.6-.4 0-.8.2-1.1 4.5-1.9 5.3-6.8t-.7-11a104 104 0 0 0-6.8-19.6 233 233 0 0 0-49.9-81.5q4.2 5.3 10.8 15.6a523 523 0 0 1 27.4 48.7q6.3 13 10.7 24.2a63 63 0 0 1 4.7 17.5q.8 7.6-4.1 13.8a16 16 0 0 1-13.6 6.3q-12 0-17-10.6a22 22 0 0 1-2.6-10.6q-10.6-21-25-40.4a474 474 0 0 0-29.8-36.2l-13.8-15q-6.9-7.2-15.3-13.3l-6 2.2-9 3.8q3 31.8 6.7 63 .8 6 2.1 12.3l2.5 12.7 3.6 11.5q2 6.3 3.2 12.6.7 2.3.1 4.8-.4 2.4-2.4 4.3-14.4 12-31 6-6.3.8-12.4-2.8a23 23 0 0 1-9-9.6 53 53 0 0 1-4.2-16.4l-1.5-16.9-4.4-38.5a1318 1318 0 0 1-6-77l-2-49.2-.1-10q-.5-5.3 1-10.8 1.3-5.5 7.3-7l1-2 .9-2.1q3.8-6.9 10.4-8.5 6.6-1.8 13 .9t9.8 8.5.8 13.4q-1.5 5.7-1.7 12.3t-.6 13l-1.1 34q1.8-1.9 3-2.3a819 819 0 0 1 6.2-48.1l.2.2v2.6l1.5 41.5q23.4-10.1 49.7-23a735 735 0 0 0 58.5-31.9q5.8-3.6 11.5-1.7 4.5 1.1 6.8 5 2.3 3.6 2.3 8.2l1.1-1.1q3-2.2 5.8 0 2.9 2.3 1 5.6a90 90 0 0 1-27 31 364 364 0 0 1-35.3 22.7l-9.8 5.2 2.6 2.3 2.7 2.3q-.4-2 1.8-3.4 2.4-1.5 3.8.4a234 234 0 0 1 62.7 97.2q3.8 10.8 6.4 21.7 1.1 5.7.8 12.6-.5 7-7.2 9m226.2-23.9q.7 8-.2 15.9a39 39 0 0 1-5.1 15 24 24 0 0 1-13 10.5q-9 3.2-16.1-4-6.5-1.5-11-6.6t-4.5-11.9q-1-48.3-13.2-96.3L684 354.7q-6.7 19.7-13.2 42.2t-10.5 38.3a1486 1486 0 0 0-13.3 60q-.3 1.1-1 1-.5-.3-.5-.6-.3 2.6-1.1 5.3l-1.5 5.6a34 34 0 0 1-3.6 6.8q-2.1 3-6.6 4.2-3.5.8-5-.4-3.4 0-5.2-1.5-2.3 1.5-3.4-1.2-2.6-4-4-8.3-1.3-4-2.4-8.6l-16.3-57.8a1015 1015 0 0 1-9.8-37.8l-3-9.4q1.1 23.9 2 48.3 1 24.6 1.4 48.3.4 8.4-.6 17.2-1 9-10 13-4.1 1.9-6.4-.7-.8-.7-1.1-1.5-8 2.7-13.2-2.7a26 26 0 0 1-6.5-12.8q-1.5-7.5-2.2-14.3a507 507 0 0 1-5-65q-1-33.6-1-67.2l-.6-32.8q-.2-16.5 2.8-32.9.4-1.5 2.3-1.5t2.2 1.5q1.9 11.4 2.3 24l.8 24.7q.7 0 1 4.2.5 4.1.8 4.1v-8.6l-.1-13.4q-.3-6.8-.2-13.4-.4-5.7-.2-11.7.1-6 2.8-11.4 0-6.4 6.4-10.2a22 22 0 0 1 19-2.6q11.2 2.3 15.4 13.2 3.3 4.2 4.1 10.2.8 6.8 2 13.8l2.2 14.1q5 29.1 11 60.8 6 31.8 12.4 60.4 3.8-15.8 7.2-31.7 3.3-15.9 7.2-31.7 5.2-24.5 10.9-48.9t9-48.9q.9-3 3.5-5.5a10 10 0 0 1 5.6-2.8 21 21 0 0 1 16.6 1.5q4.2-3 9.5-3t8.6 3.8a72 72 0 0 1 14 19.6 105 105 0 0 1 8 22.7q3 12.8 5.4 25.4a1563 1563 0 0 1 6.4 35.3q1 5 1.4 9.9a191 191 0 0 1 3.7 16.6l3.6 18.5a1487 1487 0 0 0 7.2 34.9q1.7 8.1 2.5 16.4M600.9 377l1.9 4.7q.7 2.1 2.2 4l-12-66a102 102 0 0 0-3-17.4 17 17 0 0 1-5.4 2.2q0 .8-.3 1.5a5859 5859 0 0 1 16.6 71m57.4 57.4q5.3-21.5 11.3-43 6-21.6 13.2-42.7l-.8-3.8q-.4-1.9-1-3.7a876 876 0 0 0-21.2 75.8q-.4 4.2-1.4 8.5l-1.7 8.5q.4.4 1.2.4ZM890 506.9q-2.1-.7-5-8-3-7-6-17.7-3.3-10.5-6.1-21.9l-5.1-20.4q-2.2-9-3-13.2l-29.5.4a553 553 0 0 0-7.1 33.8 379 379 0 0 0-4.6 34.2q0 3.4-3.2 3.4-3.1 0-2.8-3.4 1.5-17.1 4.3-34.2 3-17.2 8.1-33.8h-3.4q-1.9 6.8-3.7 16.4l-6.5 34.4-1 6.2-2.4 17q-1 12.9-8.6 18.5-7.6 5.7-16.6 4.5a23 23 0 0 1-15.3-8.6q-6.3-7.5-4.4-20.8 2.3-16.6 5.3-33.2t7.2-32.9a76 76 0 0 1-10.2.8q.7-2 .4-3.4-9-2.3-13.3-9.8a24 24 0 0 1-2.2-16.8 31 31 0 0 1 10.6-17 50 50 0 0 1 25.6-10.4q4.2-18.9 9.1-37.2a290 290 0 0 1 19.6-52.1q4.2-8.9 10.4-15.5t15.7-6.6q4.9-.4 9.8 2.7 5 3 7.2 7.5a20 20 0 0 1 13.7 5.9q5.5 5.5 6.3 14.5l1.9 22.8 2.2 22.5q.4.4.8.4.4-9.8 1-19.5t1.6-19l.6 6.8 1.3 21.3 1.5 26q.8 13.1 2 21.7 10.9 1.2 16.9 7.4t7.6 14.4q1.5 8-1.6 16-3 8-11 12.8 4 16.6 8 37.6 4.2 21 6.4 38 1.5 12.8-2 19.4-3.6 6.6-9.5 7.3-5.8.9-11.7-4t-9.2-15.2M834.3 377q4.1-.7 10.8-1 6.6 0 10.3-.5l-1.7-14q-.9-9-2.2-19.4-1.5-10.5-3.2-19l-8 28.3q-3.3 12.4-6 25.6m0 0"/><path fill="#efe0c1" d="M1145.3 483.9a44 44 0 0 1-18 20.4q-12.6 7.8-25.4 11-14.7 3.3-29.5 3.1-14.7-.2-29.8-2.4-14.7-2.2-28-5.7-2.5 5.6-7.1 6.8-2.6.4-5.3-.8a8 8 0 0 1-6 2.7q-3.8.3-7.4-.4a20 20 0 0 1-6.6-2.6q-6-4.2-8.7-9.1a46 46 0 0 1-4.1-11.7l-18-7.7q-8.8-4-17.5-8.5-8.3-4.5-10.6-14a22 22 0 0 1 2.6-17.4q4.6-7.9 13.8-10.4a22 22 0 0 1 17.2 2.1l1.5 1.1q-.3-3.3-1.1-6.5l-1.5-6.7q-6-31.7-12.7-63.2l-13-62.9-.8-2.2-.7-2q-1.5-5.5 1.9-10 3.3-4.2 8.3-5a28 28 0 0 1 5.3-.8q1.8-4.8 7.1-7.7 5.4-2.9 11.7-3.8 6.4-.9 10.6-.6 18.9 1.5 33.4 12.1t27.8 23.4q14.7 14.1 29.2 28.7 14.5 14.8 28.2 30.2a192 192 0 0 1 18.5 21.5q7 9.6 13.7 19.3 6.7 9.9 12 20.8 6.8 13.1 11 28.7a44 44 0 0 1-2 30.2M941.8 328.7q-.3-1.2-2.3-3.6t-1 1.7q4.9 19.6 9.1 39.1 4.4 19.5 9.3 39l10.2 40.5q2 .7 3.6 1.9l3.2 1.8q-1.4-4.8-3.2-9.6-1.7-4.6-2.9-9.6l-4.1-15.7-5.7-23a1387 1387 0 0 0-16.2-62.5m160 115.2-8.4-13q-4.5-6.7-8.9-12.7a268 268 0 0 0-38.5-42 255 255 0 0 0-47.2-34.3l-7.2-3.8a1814 1814 0 0 1 17.4 94.4l6 34q8.7 3 17.8 5.9a181 181 0 0 0 31 7q4.9.7 12 1 6.9 0 11.7-.3a68 68 0 0 0 19.8-4.7q4-1.7 7-4.4-.4-3.7-1.9-7l-3.3-6.6a111 111 0 0 0-7.2-13.5m50.6-125q18.8-9.9 39.2-16.6 20.4-6.9 40.8-12.1l8.7-2.3q11.7-2.3 23.4-4.3a214 214 0 0 1 28.9-3.2h5a2502 2502 0 0 0-44.5 11 1315 1315 0 0 0-38.3 8.8 464 464 0 0 0-50.6 15.5q-6.1 2.4-12.6 5.4-1.5-.7 0-2.2m211.8 153.6q-.8 3.5-3.8 3.8a570 570 0 0 0-41.7 9.3 484 484 0 0 0-41 12.6l-19 6.8q-9.7 3.4-19.1 7.6h-.4q-.3.3-1.1.5l-1.5.6q-3 1.5-6.3 2.7a55 55 0 0 0-6.2 2.6l-.4.4a45 45 0 0 1-8.5 3.7q-6.1 2.3-11.7 3.8l-5.5 1.5-1.3.2-2.4.2q-4.5.8-9 0-4.6-.7-6.9-5.7a8 8 0 0 1-.4-5.2q-7-3-11-10.4a17 17 0 0 1-1.4-14.6q-1.5-9.7-2.5-19.8l-1.7-19.8-4.5-45.3-4.5-43a23 23 0 0 1-6-18.6q1-10.6 9.4-17.7l.7-1.5.8-1.5a244 244 0 0 1 24.1-9q19-6.5 38-11.2 19-4.8 38.3-8.5 15-3.4 29.8-7.4l29.5-7.7 4 .5q2 .3 3.5 1l6 2.3 3.1 2.4 3 2.5q2 6 2.7 11.9.7 5.8-.4 11.5l-18.9 5.6a511 511 0 0 1-25.7 7.6q-1.5.7-2.2.7l-16.8 4.8-35.7 10.7a92 92 0 0 0-8.3 3 505 505 0 0 0-35.9 13.6l-.7.8.9 6.2 1.7 13 31.5-13.4q15.7-6.6 32-12.6a1312 1312 0 0 0 36.5-9.8l5-1.2q3.3-.7 6.6-.9l6.6-.6q7.2-.3 13.6 1a15 15 0 0 1 10.2 8.1q.7.8 1 1.5 0 .8.5 1.5.7 1.1 1 2.3l.9 2.2q.3.4.7.4 5.3 2.7 6.4 9.5 1.2 5.2-1.7 10.7a18 18 0 0 1-8 8.1q-6.1 2.7-12.4 3.3-6.1.5-12.6 2l-13.8 2.5q-6.9 1.4-13.8 3.2-13.5 3.8-27 8.1a307 307 0 0 0-42.6 17.2q-7.8 3.8-15.7 8l2.3 24.5v1.5l1.1-.8q6.4-3 12.7-5.5l12.2-5 32.1-12.5q4.2-2 8.5-3.4l22-8.1 13.7-4.8 14.7-4.5q3-.8 6-2 3-1.4 6.1-2.1 11-2.3 18 1.9 7 4 11 12 4.3 8 6.3 17.4 2.1 9.4 2.4 17.4.4 4.9-1.7 8.8a20 20 0 0 1-5.4 6.6m-91.4-80-17.5 5.3q-9 2.6-17.6 5.6-5.7 1.5-11.2 3.3l-10.7 3.2q-1.2 6.4-6 10.5 14-7 28.5-12.8l34.9-14Zm-83.4 130.6a76 76 0 0 0 15.4-.3q.9 0 1.2-.4l8.7-4.5 17.3-9.1v-.8l-10.2 3.8-10.5 3.8-10.8 4q-5.5 2-11.1 3.5m0 0"/></svg>