<svg xmlns="http://www.w3.org/2000/svg" width="1328" height="305" viewBox="59 243 1328 305"><defs><clipPath id="a"><path d="M0 0h1335v378H0z"/></clipPath></defs><g clip-path="url(#a)" transform="translate(54 216)"><path fill="#efe0c1" d="M7.4 87.4q-2.7-9.1 1.6-18 2.4-4.8 5-8.3l11.5 8.2-11.8-7.8q5.4-8 13.4-13.4L34.9 60l-10-10q3-3.2 6-4.5L37.2 58 29 46.4a72 72 0 0 1 20-9.8 49 49 0 0 1 43.2 8.1q9 7 13 18.5 3.4 9-1.5 17.3-2.7 4.9-7 8.4l-.3.3-.5.3A67 67 0 0 1 70.7 101l-3-13.8 10.6 9.5q-6 6.6-15.5 9.5a52 52 0 0 1-26.3 1.4 64 64 0 0 1-11-3l4.9-13.3-3.9 13.7q-5.2-1.5-10.3-5.4a23 23 0 0 1-8.9-12.3Zm27.2-8a6 6 0 0 0-1.4-2.5l1.1.7.5.2.4.1a36 36 0 0 0 12.6 2.2 24 24 0 0 0 6.8-1.1q1.9-.5 2.6-1.4l3.1-3.4 4.5-1a39 39 0 0 0 14.7-6.7L87.8 78l-9-10.9.5-.6a7 7 0 0 0-.7 6Q77.3 69 75 67.2a22 22 0 0 0-8.2-3.8q-4.7-1.2-9.4.2a44 44 0 0 0-12 6l-1 .6-.9.5 1.8-1.2-.4.4-1 1-1.1.8q-3.3 2.2-5.5 5.5l-.2.2-.1.2q-1.2 1.6-2.6 4.5.6-1.2.1-2.9Zm11.6-1.2 5.1-.3-1.8.9 1-.7-1.6 1.6a14 14 0 0 0-3.6 9.3 14 14 0 0 0 7.3 12.3q3.1 1.8 6.9 1.8V89l3 13.8q-4.3 1-9.3 1.4-6 .5-14.3-1h-.7a29 29 0 0 1-20.7-15q-5.7-11.5-.6-23.9L30 69.7 40.7 79q-1.7 2-3.2 4.7l-12.4-6.8 13 5.6v.2-1q0-2.9-1.3-5a7 7 0 0 0-1.5-2q1.6 1.3 2.6 1.6 4.1 1.4 9.8 2l-1.5 14Zm0 28.3h-1.4q-8.7-1-15.9-3.3a39 39 0 0 1-11.7-6.7q-7.5-6.1-7.4-14.9 0-5 2.3-10.3l.3-.6.3-.6q3-5.6 6.7-9.7L43 75l-.2.6v-.2q-.3-.6-.6-.7l2.2.7-3.2 13.9 2.5-14a28 28 0 0 0 12.6-.2l1.5-.4h1.6a14 14 0 0 1 12.2 7 14 14 0 0 1 2 7.2q0 5.4-3.7 9.5l-2.4 2.2-2.7 1.9a35 35 0 0 1-18.7 4m51.5 181.8q-5.2 9-15.4 12.6l-4.7-13.3 13.9-2.8q1 5.7-1 11.6-2.8 7.8-11.1 11.3l-5.6-13 6.3 12.7a38.5 38.5 0 0 1-43.9-7.6l-1-1-1.5-2.3 11.8-7.8-5.6 13a42 42 0 0 1-8.6-5l-.6-.5-.6-.6A37 37 0 0 1 18.5 274L16 258a705 705 0 0 1-4-43.3q-1.5-21.4-1-43.2v-20.3q0-11.2 1.2-22.2v-.4q1-6.8 3.4-13.3 3-8 8.6-13.6l10 10-11.8-7.8a44 44 0 0 1 4.8-6l1-1 1.4-.9 11-6.8q9.5-5.7 19.1-6.5 8.6-.7 15.3 4.2 5.6 4.1 8.6 11.6l-13.2 5.3-2.8-13.9q7.3-1.5 13.9 2.5 7.5 4.5 9 14l.1 1v1q0 10.8-.4 21.2a554 554 0 0 0 0 40.3L91 191v.3a44 44 0 0 0 .6 7.4l-14 2-10-10a14 14 0 0 1 13.3-3.8 14 14 0 0 1 8.2 5.4q1.6 2.1 2.4 4.8.6 1.6 1 4.3.7 3.8 1 7.3l.1.9q-.2-1.2-.8-2.3-.9-1.9-2.4-3.5-4-4.5-10.2-4.4v14.2l-14.1.4a1893 1893 0 0 1-.6-64q.2-17 1-30.5l14.1.8H66.4a15 15 0 0 1 6.3-12.1q3.1-2.3 7.2-2.8 2.7-.4 5-.1a14.5 14.5 0 0 1 12.5 14.3v.4q-1.1 39.8 1.1 79.4t7.5 79.5q1 8-4.2 13.6-4.5 4.8-11.6 5.2-6.2.4-11-2.7a17 17 0 0 1-7.3-10l13.6-3.9ZM73.3 274 90 245.3l9.1 32q-1-3.9-4.6-6a10 10 0 0 0-6.1-1.8q-4.1.2-7.3 3.6a12 12 0 0 0-3.2 9.5q-5.3-41-7.7-81.6a971 971 0 0 1-1.1-81.8l14.1.4H69.1a14 14 0 0 0 5.8 11.3 13 13 0 0 0 9 2.5q2.8-.4 5.3-2.2a13 13 0 0 0 5.6-10.9v.8a640 640 0 0 0-1 29.2 1444 1444 0 0 0 .6 62.9l.4 14.5H80.2q-6.1 0-10.4-4.5a15 15 0 0 1-3.7-7.2q-.4-1.6-.7-4l-1-6.8v.3q.8 2 2 3.8 3 4 8 5.2a14 14 0 0 0 13.2-3.8l-20 20-4-28a91 91 0 0 1-1-11.4h14.2l-14.1.5-.8-21a581 581 0 0 1 0-42.3q.4-10 .4-20.3h14.2l-14 2q.1 1.5 1 3 1.3 2.2 3.4 3.4 2.9 1.6 6.3 1l-11.6 2.3-4.3-11-.2-.4q.4.6 1 1 2 1.5 4.1 1.3-3.1.3-7 2.6l-10.4 6.4-7.6-12 10 10-.5.6-.8 1-.7 1.2-1 1q-1.2 1.3-2 3.4-1.4 3.8-2 7.5l-14-2 14.1 1.6q-1 9.3-1 19v20.8q-.4 20.6.9 41a673 673 0 0 0 3.8 41l2.4 15.5q.6 3.2 3.1 5.6l-9.7 10.3 8.5-11.3q1.6 1.2 2.8 1.7l3.8 1.6L58 282l-11.8 7.8 10-10q2.3 2.3 5.8 3 3 .5 5.5-.7l.3-.2.4-.2a8 8 0 0 0-4.5 8.6l-2.4-12 11.5-4zM57 131.5q-3.6 11-4 23.2l-1.4 27.6-14.1-.8h14.1v4.5h-14l14-1.6 1.5 13.6 1.6 13.6-14.1 1.6V199h1.1v14.2H27.6l-.2-25.3q-.2-12.9.2-26.1l14.1.4H27.6q0-10.5 1-21.1 1-11.7 4.6-22.2l13.4 4.4v14.2h-.4v-14.2l8.3 11.6 1.4-1.6q1.9-2.7 1.9-6.2v2.2Zm-27-8.8 13.5 4.4H29.4q0-9.2 8.6-15.3l3.7-2.6h24.6L60 127.8q-2.6 7.5-3.3 16-1 9.3-1 18.4v.4q-.3 12.6-.1 24.9l.2 25.7v14.1h-28L25 201.2l-1.6-14.4v-6.1q.8-13.2 1.3-27.2.8-16 5.4-30.8m0 0"/><path fill="#efe0c1" d="M265.2 314a20 20 0 0 1-11.5 3.6q-5.5 0-10.7-2.9l6.7-12.4-5.8 12.9a32 32 0 0 1-17.7-19.5 142 142 0 0 1-4.7-16.5v-.3l-2.3-13 14-2.5-12.4 7L155 152.8l12.3-7-11 9-3.8-5.2q-1-1.7-2.3-3.2l11.1-8.8 14.2-.3q.3 19.5.1 39l-.1 38.3h-14.2l14.1-1q.8 11.7 1 23.4.2 11.3.6 22.4l-14.2.5 14.1-1 .8 14.1q.4 10.7-2.4 19.6a24 24 0 0 1-8.4 12q-5.5 4.1-13 5.2l-2-14 12.1 7.3a31 31 0 0 1-16.7 13.8 33 33 0 0 1-21 .4l4-13.6-3.4 13.7a33 33 0 0 1-18.2-12L106 302l-.3-4.5q-1.5-24-2.4-47.9l-1.7-47.6q-.8-19.4-1.2-39l-1.1-38.4-.6-25.2q-.2-13 .6-25.7l.4-6.2 4.9-4a28 28 0 0 1 14.5-6.3l1.5 14h-14.1q0-9 5.7-17l.2-.2.2-.3q9-11.2 21.7-10.8 9.7.3 19 6.5 7.4 4.8 13.4 11 5.4 5.7 8.5 9.7 10.4 13.5 18.9 27.6 8.3 13.6 16 28l-12.5 6.7 12.3-7.2a651 651 0 0 1 24.6 46.3q2.2 4.4 2.2 10h-14.1L235 175l6 11.7-12.5 6.5-14 1.5q-1.6-14-4-28l-5.4-29.1-3.7-20.4a185 185 0 0 0-4.6-19l-3-11.4a29 29 0 0 1 3-21.1v-.2l.2-.3q4.5-7.5 11.4-11.8l7.3 12.2h-14.2a15 15 0 0 1 6.4-12.2h.2a14 14 0 0 0-6.2 11.4v-3.5l1.6-3.1a25 25 0 0 1 22.9-14q11.4 0 20 6l-8 11.6 4.4-13.4q4.3 1.5 8.2 5.3l3 3 .8 4q1 5 2.5 10l3 10.6q4.7 17 7.8 34.9 3 17.3 5.7 34.4 5.7 34.7 9.2 70.3 3.4 35.3 5.7 70.3l.3 5-3 4.2q-4.5 6.3-11.1 10.6a31 31 0 0 1-17.7 5.4v-14.1Zm-15.8-23.5 3.6-2.4h4.3q1 0 2-.6 2.4-1.6 4-3.7l11.4 8.3-14.2 1a2223 2223 0 0 0-5.6-69.5q-3.3-34.6-9-68.6-2.6-17-5.6-34a335 335 0 0 0-10.2-42.8l-2.9-11.6 13.9-3-10 10q.8 1 2.8 1.6l-1.9-.6-1.6-1.2q-1.3-.9-3.9-.9.6 0 1.4-.5.4-.2.7-.6l-12.5-6.6h14.2a15 15 0 0 1-6.4 12.1h-.2a14 14 0 0 0 6.2-11.3v8l-6.9 4.1q-.6.5-1.4 1.8l-12.3-7.1 12.5 6.6-.4 1.2q1.2 5.2 2.7 10a214 214 0 0 1 5.2 21.9l3.8 20.4 5.3 29.1q2.7 15.3 4.3 30l-26.7 8-7.6-14.7v-3.4q0 1 .7 2.4a650 650 0 0 0-23.7-44.4l-.1-.2-.1-.2q-7.4-13.6-15.3-26.7a278 278 0 0 0-17-25q-2.2-2.7-6.6-7.3-3.8-4-8.5-7a9 9 0 0 0-4.4-1.9 4 4 0 0 0 2-.5h-.1l-.6.7-11-8.9L135 71l-.3.5v-.2V84l-12.6 1.4 1-.2-.9.6-8.8-11 14 .8Q127 87 127 99l.6 24.5q.8 19.5 1.1 39 .4 19.3 1.2 38.5l1.7 47.5q.9 23.6 2.4 47.2l-14.1 1 11-9q1.5 2 3 2.4h.3l.2.1q2.1.6 3.6 0 1-.3 1.8-1.6l3.5-5.8 6.7-1h.5l-.6.3q-1 .9-1.4 1.9a27 27 0 0 0 1-9.6l-.7-13.5v-.4l-.6-23q-.1-10.8-1-21.9v-.9l.2-38.7q.2-19-.2-38l-.8-41.7 26 32.5q2 2.4 3.8 5.2l2.3 3.1.7 1 67.5 120.5 2.6 15.2-13.9 2.4 13.9-2.9q1.2 6.3 3.6 13.3a5 5 0 0 0 2.7 2.8l.4.2.5.3q-1-.6-2.8-.6-2.4 0-4.3 1.2m29 12a13 13 0 0 0 10.3-5.2l-23 34.5-2.9-41.4a2053 2053 0 0 0-10.3-107q-6.6-53.1-18-105l13.7-3-13.4 4.5q-1.8-5.3-.3-10.4 1.3-4.7 4.9-8.3l10 10-11-8.8a18 18 0 0 1 16.1-7q6.9.5 11.4 5.3 4 4.2 4.7 10.3l-14 1.7 13.8-2.8q10.3 49.6 16.2 100.3 6 51 5.6 102l-14.1-.1 13.8-2.8q.6 3 .9 9.2.2 6-.3 11.1l-1.1 12.9Zm0-28.3v14.1l-14-1.3a58 58 0 0 0-.2-12.1l-.3-1.5V272q.4-49.4-5.4-98.5-5.7-49.5-15.8-97.9l-.1-.5-.1-.6q.3 3.1 2.8 5.6 3 3.3 7.2 3.6 2 0 4-.7a10 10 0 0 0 4-3l-.6.7-.5.5q1.7-1.6 2.4-4.3.9-3-.1-6l.2.7.2.7q11.8 53.1 18.5 107.6 6.7 54.1 10.5 108.6l-14.2 1-11.8-7.9q1.8-2.6 4-4.3a15 15 0 0 1 9.3-3.1M99 261.8q-1.5-20.2-2.3-42.3l-1.6-42q-.7-20.2-1-40.7L93.2 96l14.1-.2-14.1 1a59 59 0 0 1 4-26.1l27.3 6q-.4 8.6-.2 17.3.2 9 .6 17.8v.3l.9 39.1 1 39.8 3.3 84.7-26.5 7.4-1-1.7q-1.6-3-2.5-9-.6-3.9-1.2-10.3Zm28.2-2.4 1.3 10.5-1-2.2 1 1.7-12.4 6.8-14.2.6-3.4-85.2q-.3-20-.9-39.5l-1-39.4 14.2-.3-14.1.6-.6-18.4q-.1-9.6.2-19l14.1.5 13.1 5.5q-1.2 3-1.7 6.2-.5 3.6-.3 6.9v.4l.8 41.2q.4 20.3 1.1 40.1l1.6 42.1q.7 21.4 2.2 41.2Zm38.2-7.1-5.3 5.2h-6q5.6 0 9.4-3.7l-10-10 14.1.2-.4 22.7q0 2.4 1.3 6.8a39 39 0 0 1-.2 20.7l-13.7-3.6-12.2-7.2q1.4-2.3 1.2-4v-.3l-.1-.3q-.4-5.6-.6-11.5-.2-5-.8-10l-.1-.9v-1a99 99 0 0 0-.7-11.6l14-1.5Zm-20-20 20.8-20.9 3.2 29.3a140 140 0 0 1 .9 14.8H156l14-1.9q1 6.4 1.1 12.7l.5 10.4-14 1 14-1.6a34 34 0 0 1-4.9 21.7L141 287q1-3.6.2-6a56 56 0 0 1-2.2-14.8l.5-28.4 4-4q4.5-4.6 10.6-4.6h.2v14.2l-10-10Zm0 0"/><path fill="#efe0c1" d="M487.4 296.4q-2.7 2.6-6.3 3.8-6.3 1.8-11.9-1.9-4.6-3-6.1-8.8-.7-3.3-.3-6.4.9-4.8 4.2-8.2l2-2 2.6-1q-1.2.5-2.2 1.7t-1 2.4q.2-2.1-.6-5.4a89 89 0 0 0-6-17.5l-.2-.4-.2-.4a218 218 0 0 0-19.5-40.6q-11.7-19-27.4-36.1l10.4-9.6 11.2-8.8q4.5 5.9 11.5 16.9a539 539 0 0 1 28.2 50q6.6 13.6 11.2 25.3a75 75 0 0 1 5.7 21.9l-14.2.8 14.1-1.4q1.4 13.2-7 24a30 30 0 0 1-24.8 11.6 32 32 0 0 1-29.8-18.8l12.8-6-12.5 6.7A36 36 0 0 1 427 271h14.2l-12.7 6.3a254 254 0 0 0-23.6-38.3q-14-18.7-29-35.2l-13.5-14.7q-6-6.3-13.4-11.7l8.3-11.4 5 13.2-6 2.3-5-13.2 5.6 13-9.4 3.9-5.3-13.2 14.1-1.3q3 31.6 6.8 62.7.6 5.4 1.9 11l2.5 13.1-14 2.5 13.7-3.9q1.4 5 3.4 11 2.4 7.2 3.7 14.6l-14 2.5 13.5-4.5q2 6 .5 12.4-1.4 6.4-6.2 11.1l-.4.5-.5.4a44 44 0 0 1-45 8.5l5-13.3 1.6 14q-11.2 1.4-21.3-4.7-9.7-5.7-14.5-15.5l-.2-.3-.2-.4a68 68 0 0 1-5.2-20.8l-1.5-16.7 14-1.3-14 1.6-4.4-38.6a1350 1350 0 0 1-6-77.9q-1-19.2-1.8-39v-.5q0-5.1-.2-9.9l-.2-10.5h14.2l-14.1 1q-.6-7.5 1.3-15.1 1.6-6.7 6.5-11.4 4.6-4.4 11.2-6l3.4 13.7-13.4-4.4a24 24 0 0 1 1.9-4.2l.4-1.2.6-1.2a30 30 0 0 1 19.2-15.3 34 34 0 0 1 22 1.5q10.8 4.5 16.7 14.5A29 29 0 0 1 345 76l-13.3-4.7 13.7 3.7q-1.2 4-1.3 9-.1 6.8-.6 13.5l-14-.9 14 .5-1 34-14.2-.5-10-10q4.3-4.2 8.5-5.7l4.5 13.4-14.1-1.3a796 796 0 0 1 6.2-48.9l14 2.3h-14.2q0-6 4.2-10.3 3-3 7.2-3.8a14 14 0 0 1 13 3.9l4.3 4.3V83h-14.2l14.2-.5.7 20.8.8 20.7-14.2.6-5.6-13a1231 1231 0 0 0 49-22.8A713 713 0 0 0 440 57.5a27 27 0 0 1 23.4-3.1l-4.5 13.4 3.4-13.7q10.3 2.5 15.5 11.4 4.3 7.2 4.3 15.5H468l-10-10 1.8-1.8.8-.6q5.3-4 11.5-4 6.4 0 11.7 4.3 5.6 4.5 6.8 11.2 1.1 6.3-2.3 12.4-11.3 21.1-31 35.5a378 378 0 0 1-36.8 23.5l-10 5.4-6.7-12.4 8.5-11.4a39 39 0 0 1 5.3 4.6L409 149l-14 2.8q-1-6 1.9-11.5 2-3.8 6.1-6.5a17 17 0 0 1 11.3-3q6.9.8 11.4 6.3l-11 8.9 9.6-10.4a249 249 0 0 1 66.4 103 239 239 0 0 1 6.8 23v.3l.1.2q1.5 7.5 1 16.2-.5 8-5 13.9-4.7 5.7-12.5 7.9l-3.8-13.7Zm-20-20 2.6-2.6 3.6-1q-1 .3-2 1.6t-1.2 2.4q.3-5.2-.5-9.1l14-2.8-13.8 3.3a211 211 0 0 0-14.3-40.6 212 212 0 0 0-50.7-71.3l-.8-.7-.6-.8q3 3.8 8 4.2 4 .5 7.1-1.6a11 11 0 0 0 4.1-11.2l7.3 36.4-29.6-22.3a39 39 0 0 1-5.3-4.5l-17.7-13.3 29-15.7q17.5-9.7 34-21.7 14.5-10.5 23-26.4a9 9 0 0 0-1 6 10 10 0 0 0 3.5 6.3q2.5 2 6 2a9 9 0 0 0 5.5-1.8L469 80l10 10-25.3 25.3V81q0-.6-.2-1 .7 1.3 1.9 1.6l-.6-.2-.5-.1h1l-.6.3-10.6 6.4q-22.5 13-49.1 26.2-26.5 13-50.2 23.2l-19 8.3-1.6-41.5-.7-21v-3h14.1l-10 10.1-.2-.2q2.4 2.4 5.5 3.4 3.4 1.3 7.2.4 4.2-.8 7.2-3.8 4-4.2 4-9.8v2.2a672 672 0 0 0-6 47l-.9 9.2-8.7 3q1.6-.6 2.7-1.4l-.2.2-25.4 25.4 2.4-70v-.2l.5-12.6q.3-8.3 2.2-15.5l.1-.5.2-.6q.4-1 .4-1.6-1-1.7-3-2.5a6 6 0 0 0-4.1-.3q-.7.2-1.5 1.7l-12.4-7 13.4 4.6a25 25 0 0 1-1.9 4.1l-2.4 7.4-7.6 1.9q.7-.1 1.5-1a5 5 0 0 0 1.5-2.5 21 21 0 0 0-.6 6.5v1l.2 9.5q.3 5.3.2 10.9H288l14.1-.6q.7 19.5 1.7 38.8a1312 1312 0 0 0 6 76.2l4.3 38.3v.2l1.6 17q.5 6.3 3 12.1l-13 5.6 12.7-6.3q1.2 2.3 3.6 3.8 2 1 3.6 1l3.3-.5 3.2 1.2q4.5 1.6 8.5.9t8.5-4.5l9.1 10.8-10-10a5 5 0 0 0-1.2 5.4l-.3-1-.2-1q-.9-5.4-2.7-10.6l-3.7-12.1-.2-.7-.2-.7-2.3-12.2q-1.5-6.8-2.3-13.5-3.7-31.5-6.9-63.4l-1-10.6 9.9-4 8.7-3.6h.3l13.5-5.1 6.2 4.4q9.4 6.8 17.2 15.2l14 15a491 491 0 0 1 30.7 37.4q15 20.3 26.2 42.5l1.5 3v3.4a8 8 0 0 0 1 3.8l.2.4.1.4q.8 1.5 1.4 1.8.8.5 2.8.5 1.8 0 2.5-.8a5 5 0 0 0 1.2-3.6v-.3l-.1-.3q-.2-4.2-3.8-13.2-4-10.6-10.2-23a491 491 0 0 0-36.6-62l21.6-18.3q17.5 19.2 30.6 40.5a246 246 0 0 1 22 45.8l-13.2 4.8 13-5.5 3.4 8.6q2.4 6.3 4 13.1a42 42 0 0 1 1.1 16.6 23 23 0 0 1-13.8 17.7l-5.5-13 10 10a13 13 0 0 0-2-20.3q-5.5-3.5-11.7-1.8-3.4 1-5.9 3.5m0 0"/><path fill="#efe0c1" d="M717.7 261.3q.9 9.5-.3 18.9-1.2 10.8-6.9 20.5a37 37 0 0 1-20.4 16.6 28 28 0 0 1-31-7.3l10.1-10-3.2 13.8a35 35 0 0 1-18.3-11 31 31 0 0 1-8.1-21.3h14.1l-14.1.4q-1.1-46.8-12.8-93.2v-.2l-5.4-24.2-5.3-23.5 13.8-3.1 13.4 4.6a791 791 0 0 0-13 41.4q-6.3 22.2-10.5 38a1490 1490 0 0 0-13 59l-.1 1-.3.9a16 16 0 0 1-3.9 6.3 15 15 0 0 1-15 3.6 15 15 0 0 1-6-3.7 14 14 0 0 1-4.2-10.3h14.1l14 2a54 54 0 0 1-1.5 7.2q-.8 2.4-1.4 5.2l-.2 1-.4.8q-2 5.2-5 9.6-5.1 7.4-14.9 9.8h-.2l-.1.1q-9.7 2.2-16.5-2.8l8.5-11.4v14.2q-8.4 0-14.1-4.6l8.8-11 7.8 11.7q-6.8 4.6-14.3 2.1a16 16 0 0 1-10-9.4l13.1-5.6-12 7.6a50 50 0 0 1-5.5-11.6q-1.4-4.6-2.7-9.6l13.8-3.4-13.7 3.8-16.2-57.7a1114 1114 0 0 1-10-38.3l13.8-3.3-13.4 4.4-1.5-4.5-1.7-5.5 13.6-3.9 14.2-.6 2 48.4q1 24.7 1.4 48.7l-14.2.2 14.1-.7q.4 9.4-.6 19.4a29 29 0 0 1-5.8 14.8q-4.6 6-12.4 9.6A21 21 0 0 1 517 317q-7.1-.9-11.8-6.4l10.7-9.2-10 10a20 20 0 0 1-3.8-5.1l12.7-6.4 4.5 13.5a28 28 0 0 1-14.6 1q-7.5-1.5-13.1-7.1l-.2-.2-.2-.2q-7.6-8.2-10-19.7-1.5-8.1-2.4-15.5l14-1.6-14 2a520 520 0 0 1-5-66.6q-1-33.7-1.1-67.5h14.1l-14.1.3q-.4-16.3-.6-33a183 183 0 0 1 3-35.6l.2-.5V69q1.6-6 6.7-9.5 4.2-2.7 9.4-2.7t9.3 2.7q5.2 3.5 6.7 9.5l.1.6.1.5q2 12.3 2.5 26l.7 24.6-14.1.5V107q13.6 0 15.2 17 0 1.5.2 1.9 0-.7-.4-1.5a13 13 0 0 0-5.2-6.6q-3.6-2.5-8-2.5v14.2h-14.1v-8.7q0-6.6-.2-13L484 94h14.2L484 95q-.3-6.4-.2-13.2a41 41 0 0 1 4.4-17.2l12.6 6.4h-14.1q0-7.4 3.7-13.4 3.4-5.4 9.7-9l7.1 12.2-7.5-12q14.6-9.2 30.6-4.2L526 58l2.8-13.9a35 35 0 0 1 26 22.1l-13.3 5 11-9q6 7.4 7.2 17.5.7 6.6 1.8 13.2l2.3 14.2q4.8 28.9 10.9 60.4 6 31.5 12.3 60l-13.8 3-13.8-3.2q3.8-15.8 7.1-31.4 3.4-16 7.3-32 5.2-24.5 11-48.9 5.4-23.7 8.7-47.6l.1-.8.2-.7a25 25 0 0 1 7.5-12.4A24 24 0 0 1 615 47l1.7 14-3.8-13.6a34 34 0 0 1 27.5 2.9l-7 12.2-8.4-11.4a30 30 0 0 1 17.8-5.7q11.6 0 19.2 8.4l-10.5 9.5 10-10q10.4 10.4 16.7 23.5 6 12.3 9 25.7 3 13 5.5 25.9a1558 1558 0 0 1 6.5 35.3q1 5.7 1.5 11.4l-14.1 1 13.6-3.6a218 218 0 0 1 4 17.8 1491 1491 0 0 1 7.2 36.7l-13.9 2.8 13.8-3.1 3.7 16.6q1.8 9 2.7 18m-28.2 2.6q-.7-7.5-2.3-14.8-1.5-8-3.5-16.2v-.3a1637 1637 0 0 1-7.3-37.3A174 174 0 0 0 673 180l-.3-1.3-.1-1.3q-.4-4.2-1.2-8.3l-1.7-10q-2.2-12.7-4.7-25.2-2.4-12.4-5.4-25.1a91 91 0 0 0-6.8-19.6 58 58 0 0 0-11.3-15.8l-.2-.3-.3-.2q.9.9 1.9.9-.8 0-1.1.3l-7.5 5.4-8-4.6q-2-1.2-5.7-.1l-1 .3h-1a4 4 0 0 0 2.2-.8q.4-.3.7-1.4l-13.7-3.5 14 2a560 560 0 0 1-9.3 50.1q-5.6 24.3-11 49l-7 31.4-7.3 32-27.6-.2q-6.4-28.8-12.6-60.8-6-31.8-11-61.2l-2.2-14.1q-1.2-7.5-2-14.3a6 6 0 0 0-1-3l-1.5-1.8-.8-2.2a7 7 0 0 0-2-3q-1-.9-3-1.3l-.8-.1-.7-.3a8 8 0 0 0-7.2 1.2h-.1l-.2.2-.4.2q.2 0 .4-.5.6-1 .6-1.7v3.3l-1.5 3q-1.3 2.5-1.4 5.4 0 5.4.2 10.3v1q0 6.6.2 13l.2 13.8v22.8h-14.2a14 14 0 0 1-11.5-5.9 15 15 0 0 1-2.8-6.7l-.6-5.4v.3q.5 1.5 1.5 3.1 1.3 2.1 3.4 3.6 3.6 2.7 8.2 2.7H483l-1.1-38.4q-.5-11.7-2.1-22.1l14-2.3-13.8 3.4q1.2 4.5 5.1 7.2 3 2 6.4 2 3.3 0 6.3-2 4-2.7 5.1-7.2l-13.7-3.4 14 2.6q-3 14.9-2.7 30 .2 16.6.6 32.7v.4a1993 1993 0 0 0 2.6 98.4q1 15.6 3.3 31.8v.3q.8 6.2 2.1 13.2a12 12 0 0 0 3 6l-10.4 9.6 10-10q-.4-.5-1.3-.6h-.6l.6-.2 11.7-3.9 5.4 11q-.6-1.3-1.5-2.2l.4.4.4.4q-2.5-2.8-6.4-3.3-2.2-.2-3.9.4 1.5-.6 1.7-1l.2-.6q.8-7.9.5-15v-.5q-.4-23.5-1.4-48l-2-48.2 27.7-4.6 1.4 4.4 1.7 5v.7a1013 1013 0 0 0 9.8 37.2l16.3 58v.2l2.2 7.8q.8 2.4 2.4 5l.7 1 .4 1q-.6-1.5-1.7-2.7a12 12 0 0 0-5.4-3.5 12 12 0 0 0-10.4 1.1l8.7-5.7 8 6.5a8 8 0 0 0-2.7-1.5l-.8-.1h4.7l3.8 2.8a10 10 0 0 0-6.7-2.1l3 13.8-3.3-13.7h.1l-.3.1a5 5 0 0 0-1.5 1.4q1.2-1.7 2.1-4l13.2 5.3L575 286l1.7-6.1.7-3.4 28.2 2q0-5.7-4-9.7a13 13 0 0 0-13-3.4 13 13 0 0 0-9 8.2l13.3 4.5-13.9-2.6q2.3-12.3 6-28.7 3.6-16.5 7.5-32.3 4.1-16 10.6-38.6 6.5-22.8 13.5-42.9l16.3-47 16.1 72.2 5.3 24-13.8 3 13.7-3.4q12.5 49.5 13.7 99.4v.3q0 1.5 1 2.5 1.5 1.8 3.5 2.2l4 1 2.8 2.8 1 .8h-.3l.5-.1a10 10 0 0 0 5.6-4.2 25 25 0 0 0 3.3-9.7q.8-6.4.2-12.8ZM559.9 154.4l2.2 5.4-11 8.8-14 2.6-6-33-6.2-33.7v-.7a90 90 0 0 0-2.7-15.2l13.7-3.4 7.9 11.8q-4.3 2.8-9.7 4.2l-3.5-13.7h14.2q0 4-1.9 7.8L530.3 89l13.7-3.3 8.2 34.4 7.8 35-13.9 3 10-10q5 4.8 5 11.9h-14.2Zm-26 11.1-1.2-2.6v-3a11 11 0 0 0 3.4 8.2l-3-3-.8-4q-3.7-17.7-7.7-34.5l-9.3-39.4 2.3-4.6q-1 2.2-1.1 4.9v-11l10.7-2.8q.6 0 .9-.3l16.7-11.1 4.9 19.5a138 138 0 0 1 3.3 19.5l-14 1.3 13.9-2.6 6 33 6 33-25 11.5a28 28 0 0 1-4.4-8zm56.6 48.5q5.4-21.7 11.5-43.5t13.4-43.4l13.4 4.5-13.9 2.8-.7-3.8-.4-1.3 13.1-5.2 13.5 4.4a853 853 0 0 0-20.8 74.7l-13.8-3.2 14 1.3q-.4 5-1.5 10.2l-1.6 8-14-2.5 10-10a12 12 0 0 0-8.8-3.8h.4v14.1Zm24.9 17.5h-11.5q-6.6 0-11.2-4.5l-5.2-5.3 1.3-7.3 1.8-9q.8-3.4 1-6.7l.2-1 .2-1a1017 1017 0 0 1 21.5-77l12-37.1 14.6 36.2q1.2 3 1.8 6.3l1.5 7.5-1.2 3.6a822 822 0 0 0-13 42q-6 21.2-11.2 42.5Zm0 0"/><path fill="#efe0c1" d="M831.6 303.3q-6-2-9.8-8.2a46 46 0 0 1-4-8q-3-7.7-6.4-18.8a472 472 0 0 1-6.2-22.6l-5.1-20.4q-2.4-9.5-3.2-14.1l13.9-2.5.2 14.1-29.5.4-.2-14.2 13.8 3.4q-4 16.5-7 33-3 16.1-4.4 32.8l-14-1.2h14q0 7.3-4.6 12.3a17 17 0 0 1-12.7 5.2q-8.2 0-13.2-5.9-4.5-5.5-3.7-13.2 1.5-17 4.5-34.9 3-18.1 8.6-35.8L776 209v14.2h-3.4V209l13.7 3.8q-1.7 6.3-3.5 15.4l-3.6 18.7-2.8 15.5-1.1 6.2-14-2.6 14 2-2.2 17-14-2 14 1.3a38 38 0 0 1-14.2 28.6q-12.1 9-26.9 7.2t-24.5-13.7a39 39 0 0 1-7.4-31.8q2.3-16.8 5.4-33.7 3-17.1 7.4-33.9l13.7 3.5 2 14a90 90 0 0 1-12.2 1h-21l7.8-19.5a8 8 0 0 0-.2 5.3l13.8-3.4-3.5 13.7q-15-3.7-22.1-16.7-6.7-12-3.8-26.4a45 45 0 0 1 15-24.8 63 63 0 0 1 33-13.8l2.1 14-13.8-3q4.2-19.2 9.2-37.8 5.2-19.2 12.7-37.5v-.2l.2-.2 7.6-16.6a73 73 0 0 1 13-19.2q10.3-11 25.9-11v14.1l-1.1-14a30 30 0 0 1 18.3 4.6q8.4 5.1 12.4 13.3l-12.6 6.3.6-14.1q13.9.6 23.2 10 9 9.1 10.3 23.3l1.9 22.7 2.2 22.4-14 1.4 10-10a13 13 0 0 0-9.3-3.8v14.2l-14.2-.5 1-19.8q.6-10 1.8-19.9l14 1.7h-14.1a15 15 0 0 1 2-7.6 14 14 0 0 1 4.6-4.6q5.2-3.3 11.2-1.7a14 14 0 0 1 9.8 9.3 15 15 0 0 1 .8 4.4l.4 6 1.4 21.5 1.5 26q.6 12.6 1.8 20.7l-14 1.9 1.4-14.1a40 40 0 0 1 37 33.2q2.2 12-2.2 23.7a40 40 0 0 1-16.7 19.8l-7.5-12 13.8-3.2q3.8 16.8 8 38 4.2 21.3 6.6 38.8a47 47 0 0 1-3.7 28 26 26 0 0 1-20 14.7q-12 1.5-22.7-7.3-8.9-7.5-13.6-21.5l13.5-4.5Zm9-26.9 6.7 2.2 2.2 6.8q2 6.3 5 8.7.8.8 1.4 1h-.7q-.9 0-1.6.6l-.1.1.5-.8q.5-.9.7-3a36 36 0 0 0-.2-7.9 600 600 0 0 0-6.3-37q-4-20.8-7.8-37.2l-2.2-9.9 8.5-5.3a12 12 0 0 0 5.2-5.8q1.6-4.2.8-8.4-.6-4-3.8-7.1-2.4-2.5-8.2-3.1l-11.2-1.2-1.4-11q-1.2-9.3-2-22.8l-1.5-26-1.8-27.4v.3a13 13 0 0 0 1.6 4.7q3 5.3 8.8 6.8 6 1.6 11.2-1.7a14 14 0 0 0 6.6-11.7v.8l-.1.9q-1.1 9-1.6 18.2l-1 19.1-.5 13.7h-13.6q-6.3 0-10.8-4.6L820 125l-3-27.7-2-23q-.2-3.9-2-5.7-1.6-1.5-4.5-1.7l-8.3-.4-3.7-7.4a5 5 0 0 0-2-1.9q-.9-.6-1.2-.5h-1.1a7 7 0 0 0-5.4 2.2 44 44 0 0 0-7.8 11.7L771.6 87l-13-5.9 13.2 5.4a276 276 0 0 0-11.5 34q-4.8 18-9 36.6l-2 9.4-9.6 1.5a36 36 0 0 0-18.4 7q-5.2 4.5-6.1 9.2-.9 4.2.8 7.2 1.1 2.1 4.2 2.9l8.2 2 2.1 8.3q1.5 6-1 12l-13.1-5.2v-14.2a55 55 0 0 0 8.2-.6l21-3-5.3 20.6q-4 15.7-7 31.8-3 16.3-5.2 32.7-1 7 1.3 9.8a9 9 0 0 0 6.1 3.6q3.4.5 6.4-1.8 2.5-1.8 3-8.4v-.3l2.4-17.7 1.2-6.5 2.9-15.5 3.6-19q2-10.2 4-17.6l3-10.3h33.5l-5.9 18.4a226 226 0 0 0-7.6 31.8 453 453 0 0 0-4.2 33.5q.5-4.4-2.7-8.1a12 12 0 0 0-8.6-4.3q-4.5 0-7.9 3.6-3 3.3-3 7.2v-1.2q1.5-18 4.7-35.5 3-17.2 7.4-34.6l2.6-10.7 52.4-.7 2.1 11.8 2.8 12.3 5.1 20.4a439 439 0 0 0 11.5 37.9q1 2.3 1.5 3.1l-.8-.9q-1.7-1.6-4.2-2.5m-63-130.4q5.2-1 13-1.1l9.3-.5 1.4 14-14 2.2-1.7-14.7-2.3-19q-1.2-9.8-3-18l13.9-3 13.6 4q-4.6 15.8-7.9 28.1-3.3 12-5.8 24.7l-13.9-2.7Zm5.1 27.9-20.5 3.7 4.1-20.4q2.8-13.7 6.3-26.6l8-28.5 27.4.9q2 9.3 3.4 20.2 1.5 10.6 2.3 19.8l1.6 13.3 2.3 14.7-14.9 1.5q-4.2.4-11.3.7-5.5 0-8.7.7m0 0"/><path fill="#efe0c1" d="M1104.3 272.3q-7 16.5-23.4 26.9a98 98 0 0 1-29.8 12.7 138 138 0 0 1-32.9 3.6q-15.6-.2-31.7-2.6a304 304 0 0 1-29.4-6l3.6-13.7 12.8 6a25 25 0 0 1-16.6 14.6l-.7.1-.7.1q-6.6 1-12.9-1.7l5.6-13 10 10a22 22 0 0 1-16 6.8v-14.2l1.4 14.1a38 38 0 0 1-23-5.1l-.2-.2-.2-.1q-9-6.2-13.2-14a59 59 0 0 1-5.5-15.4l13.9-3-5.5 13-18.2-7.9q-9.3-4-18.4-8.9a35 35 0 0 1-17.8-23.2 36 36 0 0 1 4.4-28.1l12 7.5-12.2-7q7.4-13.2 22.4-17.1t27.8 3.5l.8.4 2.2 1.7-8.5 11.3-14 1.5q-.3-2.5-.9-4.9l-1.6-6.8v-.4q-6-31.5-12.6-63l-13-62.9 13.8-2.8-13.4 4.4-.8-2.2-.6-1.3-.4-1.4a24 24 0 0 1 4.4-22.4 27 27 0 0 1 17.3-10.4l2.2 14-3.5-13.7a42 42 0 0 1 8.8-1.2v14.2L876.9 59q3.7-9.9 13.7-15.2 7.5-4 16.3-5.3 8-1.2 13.9-.6a78 78 0 0 1 40.5 14.7 269 269 0 0 1 29.2 24.7q14.8 14 29.5 29 14.9 15 28.7 30.7l-10.6 9.4 10-10a205 205 0 0 1 19.9 23.1 421 421 0 0 1 14 19.7 182 182 0 0 1 13 22.5l-12.8 6.2 12.6-6.5q7.4 14.5 12.2 31.4a58 58 0 0 1-2.7 39.7Zm-26-11.2a30 30 0 0 0 1.4-20.7q-4-14-10-26l-.1-.2-.1-.1q-4.9-10-10.9-19A404 404 0 0 0 1037 166q-4.5-5.1-9-9.6l-.3-.4-.3-.3q-13.3-15.2-27.5-29.6-14.4-14.5-29-28.5-12.6-12-26.3-22a51 51 0 0 0-26.4-9.5 33 33 0 0 0-14.3 2.7l-.7.5V69l-3.4 9.1h-10.2l-1.4.3-.6.2-.7.1 1-.4-.3.2q.4-.5.6-1.4v-1L874.7 80l12.6-6.3q.9 1.5 1.6 3.7l1 3L903 144q6.6 31.7 12.7 63.5l-14 2.7 13.9-3.1 1.5 6.4q.8 4 1.4 8.3l3.6 32.5-27.7-20.7 8.5-11.4-7 12.3a8 8 0 0 0-6.5-.6 8 8 0 0 0-5.2 3.7v.2l-.2.2a8 8 0 0 0-1 6.6 7 7 0 0 0 3.4 4.7q8.3 4.4 16.8 8.2l17.6 7.6 6.8 2.8 1.6 7.2q1 4.8 2.8 8 1 1.9 4.2 4.1l-8 11.7 7.5-12 2 .8q1.5.3 3 .1h1.5q-2.5 0-4 1.5l6.8-6.8 8.8 3.8q-1-.4-2.3-.3l2 14-3.4-13.7a5 5 0 0 0-2.5 1.5l.2-.6 5-10.6 11.4 3q12.5 3.1 26.5 5.3t28 2.3q13 .2 26-2.8 10.5-2.6 21.1-9.2 9-5.6 12.5-14Zm-204-145q.4 1.1.8 1.6l-.8-1a13 13 0 0 0 10.6 4.6A14 14 0 0 0 896 115a13 13 0 0 0 2.2-8v.1l-13.9 2.5 13.7-3.4q5 19.8 9.4 39.4 4.3 19.3 9.1 38.8l10.2 40.3-13.7 3.5 5.3-13.2a34 34 0 0 1 7.8 4.3l-6.3 12.7-13.5 4.1-3-9A99 99 0 0 1 900 216l13.8-3.2-13.7 3.9-4.2-16-5.7-23.3q-3-12.5-6.2-24.9l-5.8-22.4-4-14.3 13.5-4.2Zm27-9v.4l4.4 15.5 5.8 22.5q3.3 12.6 6.3 25.3a1608 1608 0 0 0 9.7 38.1v.4l.1.3q1 4.2 2.4 8 1.9 5 3.4 10.3l9.8 31.6-29.6-14.8a44 44 0 0 1-5.8-3.3l-6.7-2.6-12-47.5-9.3-39.4a1571 1571 0 0 0-9.1-38.7l-.1-.5-.1-.4a17 17 0 0 1 2-13 14 14 0 0 1 11.6-6.3q4.5-.2 8.4 2.4 2.3 1.5 4.3 4 3.3 4.4 4.4 7.7M1036 234.5l-8.5-13q-4-6.2-8.3-11.9a254 254 0 0 0-36.4-39.7l-.2-.1-.2-.2q-19.6-18.2-44.6-32.5l7-12.3-6.6 12.6-7.2-3.8 6.6-12.5 13.9-3a1861 1861 0 0 1 17.5 95.1l3 16.5 3 17.3-14 2.4 4.7-13.3 17.3 5.7a167 167 0 0 0 28.9 6.5q4.2.6 10.7 1l-.8 14.1v-14.2q6.3 0 10.6-.3a53 53 0 0 0 15.4-3.6q1.8-.8 3.2-2l9.3 10.7-14 1.4q-.1-1.4-.7-2.4-1.2-2.7-3-5.8l-.2-.5-.3-.6a102 102 0 0 0-6.2-11.8Zm23.9-15.2a116 116 0 0 1 8 15.3l-12.8 5.8 12.3-7 3.9 7.5q2.5 5.5 3.1 11.7l.8 7.2-5.5 4.8q-4.8 4.2-10.8 6.7-5 2.3-11 3.6-7.2 1.8-13.3 2.2-5.4.5-12.8.5h-.7a139 139 0 0 1-26.6-3.7q-10.1-2-20-5.1l-18.1-6-7.9-2.7-4.4-25.3-3-17a2312 2312 0 0 0-17.3-93.8l-6.2-29.5 34 18h.2a270 270 0 0 1 49.8 36.3l-9.6 10.4 9.2-10.7a252 252 0 0 1 40.6 44.1 263 263 0 0 1 9.4 13.4l8.5 13Zm0 0"/><path fill="#efe0c1" d="M1092 89.2q19.8-10.3 41.3-17.4 20.8-7 41.7-12.4l9-2.4h.5q11.9-2.4 23.6-4.4 12.5-2.2 25.4-3l.9 14-2-14a50 50 0 0 1 7-.5h5.2l3.4 28-22.3 5.4-22.5 5.5h-.2q-19 4.2-37.9 8.9-18.5 4.5-36.8 10.8h-.3l-.2.1a136 136 0 0 0-23.3 9l-6.2 3-6.2-3q-3-1.6-5.2-4.3a15 15 0 0 1-3.3-9.4q0-6.4 4.9-11.3l1.5-1.5Zm13 25.2-6.5-12.6 10 10q3.3-3.3 3.4-8.7a13 13 0 0 0-7.1-11.7l-6.3 12.7-6-12.8a227 227 0 0 1 27.3-10.6l4 13.6-4.6-13.4q19.5-6.7 39.1-11.5 19.3-4.8 38.7-9l3 13.8-3.3-13.7 22.2-5.5 22.3-5.5 3.4 13.8v14.2h-5.1l-3.1.2h-.6l-.5.1q-11.3.8-22.2 2.6l-23.2 4.3-2.7-13.8 3.6 13.6-8.7 2.3a614 614 0 0 0-39.9 11.8 256 256 0 0 0-37.2 15.8m219.1 144.1q-1.3 5.8-5.1 9.6-4.5 4.5-10.7 5.2l-1.8-14 2.5 13.9a550 550 0 0 0-80.4 21.3l-19 6.8a259 259 0 0 0-18.2 7.2l-2.7 1.2h-3.4v-14.2l10 10a16 16 0 0 1-7.7 4.3l1.4-.5a69 69 0 0 1-7.9 3.3l-4.6 2-6.3-12.7 10 10-1.4 1.4-1.1.8a57 57 0 0 1-11.5 5.3q-6.8 2.5-12.8 4l-6.4 1.8-2.2.4-4.4.3v-14.2l2.3 14q-6.8 1.2-13.7 0a22 22 0 0 1-10.7-4.9q-4.2-3.4-6.6-8.8l12.8-6-12.6 6.4a21 21 0 0 1-1.5-15l13.7 3.4-5.4 13a36 36 0 0 1-18.2-16.7 31 31 0 0 1-2.1-26.1l13.3 4.9-14 2.1q-1.6-10.2-2.6-20.6l-1.7-20.1 14.1-1-14 1.3-4.6-45.3-4.5-43 14-1.4-10.4 9.5a36 36 0 0 1-9.6-29.5q1.7-16.2 14.2-27l9.3 10.7-12.7-6.3.8-1.5 3-6.1 4.7-2a255 255 0 0 1 25.6-9.7l4.2 13.5-4.5-13.4q19.5-6.6 39-11.4t39-8.7l2.8 14-3.1-13.9q14.8-3.3 29.3-7.2 14.7-4 29.6-7.8l3-.8 3.3.6 2.4.4q4.7.4 8.7 2.4l-6.4 12.6 5-13.2 8 3 1.6 1.2a64 64 0 0 1 6 4.9l3.7 2.7 1.3 4.4a84 84 0 0 1 3.2 14.3q1 8.2-.5 16l-1.7 8.4-27 8.1-12.9 3.9-13 3.7-3.9-13.6 6.4 12.7q-4.5 2.2-8.6 2.2v-14l3.6 13.7q-7 1.8-16.4 4.6l-19.3 5.6a477 477 0 0 0-22.4 7.2l-.9.5-1 .3a503 503 0 0 0-34.6 13.1l-5.7-13 10 10-.7.8-10-10 13.8-2.8q.6 2.4 1.1 7.2l1.1 7.9q.8 4.8.8 7h-14.2l-5.5-13 31.5-13.5q16-6.8 32.5-12.8l.7-.3.8-.2a1284 1284 0 0 0 36-9.7l.5-.1 5.3-1.2q4.5-1 9-1.3l5.8-.5h.8q9-.6 17.2 1.1 12.8 2.7 19.7 15.1l-12.3 7 10-10q3.5 3.5 4.6 8-.1-.8-.5-1.4l-12.6 6.3 11.7-7.8q2 2.7 2.8 5.6l.8 2.3-13.4 4.5 10-10a13 13 0 0 0-9.3-3.8h3.4l3 1.5q11.7 5.8 14 19.8l-14 2.3 13.9-3q2.1 10.3-3 20.3a32 32 0 0 1-14.4 14.2l-.3.2-.3.1q-8.1 3.6-16.7 4.4-5.2.5-10.7 1.7l-.4.1-.5.1-13.5 2.4q-6.3 1.2-12.6 3-13.3 3.6-26.4 7.9a296 296 0 0 0-40.8 16.4q-7.6 3.7-15.3 7.8l-6.6-12.6 14.1-1.3 2.3 25.2v2.2h-14.1l-7.9-11.8 2-1.3 1-.5q6.8-3.1 13.5-5.8 6-2.3 11.7-5h.3l32.4-12.6 5.1 13.2-5.8-12.9q4.7-2.1 9.7-3.9l8.3-3 4.8 13.4-5.1-13.2a610 610 0 0 1 27.8-10l.2-.1 15.2-4.7h.4q1.8-.5 3.8-1.4 4-1.8 8.3-2.8l.2-.1h.3a38 38 0 0 1 44.5 21.2 83 83 0 0 1 7.5 20.9q2.4 10.5 2.8 19.7l-14.2.7 14.2-1a30 30 0 0 1-3.3 16.4 34 34 0 0 1-9.3 11.2l-8.7-11.1Zm-27.6-6.1 1-5 4-3.1a6 6 0 0 0 1.7-2q.2-.4.1-1.2v-.4q-.4-6.7-2.1-15-1.7-7.5-5-13.9-2.2-4.3-5.8-6.5-2.2-1.4-7.8-.1l-3-14 3.5 13.8q-1.8.5-3.8 1.3a52 52 0 0 1-8.3 2.9l-3.4-13.8 4.2 13.6-14.7 4.5-4.2-13.5 4.5 13.4a581 581 0 0 0-26.6 9.6h-.3l-8.6 3.2q-3.8 1.2-7.3 2.9l-.4.2-32.5 12.6-5-13.2 5.6 13-12.8 5.2-11.8 5.1-6-12.8 7.9 11.8-23.2 15.4v-28h14.2l-14.1 1.4-3.2-34 8.4-4.4 16-8.1q8.2-4 16.7-7.5 13.9-6 27.9-10.4 13.7-4.5 27.5-8.3 7.5-2.1 15-3.5l14-2.5 2.4 14-3.2-13.8q7.3-1.8 14.6-2.4 3.9-.5 7.8-2.1l5.7 13-6.3-12.7q1.2-.5 1.9-2l.4-1.2v-.4l-.1-.3-.1-.5.1.4q.5.7 1.2 1l6.3-12.6v14.1q-6.2 0-10.8-4.5l-2.3-2.4-1.8-5.4.5 1.1-.5-.7-.4-.8q-1.1-2.3-1.6-4.4.8 3 2.7 5l-1.4-1.4-1-1.7-.8-1.2h.2q-4.6-.9-10-.6l-.7-14.1 1.5 14-7.3.7q-2 0-4.3.6l-4.9 1.1-3.1-13.8 4 13.6a781 781 0 0 1-37.2 10l-3.5-13.8 5 13.3q-16 5.9-31.3 12.4l-51.3 21.8V163l-.4-2.8-2-13.7-1.4-7.4 8-8 2.5-1.1a385 385 0 0 1 37-14l4.5 13.4-6.4-12.7q2.5-1.2 10.2-3.8 7-2.3 17-5.2l19.2-5.7q9.7-3 17.2-4.8l1.7-.5h1.9q-2.6 0-4.1.8l1.1-.6 14.4-4.2Q1256 91 1262 89l19-5.7 4 13.6-13.9-2.8q.6-3.3.2-6.9-.5-4.5-2.1-9.5l13.5-4.2-8.5 11.3a66 66 0 0 1-6-4.9l8.5-11.3-5 13.2-6.7-2.5-.7-.3 1.5.5-5.5-.8 2.8-13.9 3.5 13.7q-14.6 3.7-29.3 7.7-15 4-30.4 7.5h-.2l-.2.1a782 782 0 0 0-37.6 8.4q-18.5 4.5-36.8 10.7l-.2.1h-.1a215 215 0 0 0-22.7 8.6l-5.7-13 12.6 6.3-.7 1.5-2 4-2.2 2a13 13 0 0 0-4.6 8.5q-.5 4.2 2.5 7.5l3 3.4 5 47.7 4.6 45.5v.1l1.7 19.6a325 325 0 0 0 2.4 19l.5 3.6-1.2 3.5q-.5 1 .5 2.9 1.5 3 4.1 4l11.2 4.7-3 11.8q.6-2.1-.6-4.5v.2l.2.2-1-1a6 6 0 0 0-2.8-1.3q2.3.3 4.5 0l1.1-.2h1.6l1.4-.3 2 14-3.8-13.6 5.5-1.5a141 141 0 0 0 16-5.7l8 11.8-10-10 2-2 2-1q3.7-2 7.8-3.4 2.4-.8 4.6-2 2.3-1 4.4-1.6-3 .8-5.4 3.2l4.1-4.2h6.3v14.2l-5.7-13q10-4.3 20-7.9l19-6.8q20.6-7.4 42.2-13 21.5-5.6 42.8-9.5h.4l.3-.1a10 10 0 0 0-5.8 2.9 9 9 0 0 0-2.4 4.3M1223 189l-17.6 5.3q-8.6 2.5-17 5.5l-.4.1-.6.2-10.5 3-11.1 3.3-3.9-13.6 14 2.5q-2 11.5-10.9 18.9l-9.1-10.8-6.5-12.6q14.6-7.5 29.8-13.5 14.5-5.6 28.3-11.2l5.4 13.1-6.4-12.7q4-2 8.3-3.4l4.5 13.5-13.4 4.4-.4-1 13.4-4.6Zm5-31 9.2 27.5-13.4 4.5q-2.5.8-4.6 1.9l-.5.2-.5.2-28.7 11.4q-13.8 5.4-27.2 12.3l-15.6-23.4q1-.8 1.3-2.3l1.5-8.7 8.5-2.4 10.5-3.1 11.7-3.4 3.6 13.7-4.7-13.4q9-3 18.2-5.8l17.5-5.3Zm-91.2 134a63 63 0 0 0 11 0l.2-.1h-.1q-1.7.3-3.3 1.1l3-1.5h3.4q-5.2 0-9 3.8l1.7-1.6 6.6-3.3 3.2-1.8.4-.2.5-.3 17-8.8 6.7 12.4H1164v-.7h14.1l5.1 13.2-10.5 3.9-10.6 3.7-10.5 4a130 130 0 0 1-12.5 4l-3.6-13.7Zm-2.6 28.2-2.4-27.8q5-1.4 9.8-3.2l11-4 10.6-3.8 9.9-3.7 19.2-7.4v29.8l-7.4 4-17.8 9.3-6.3-12.6 7.2 12.1q-2.3 1.5-5 2.8l-4.6 2.3-6.3-12.7 10 10q-4.5 4.5-11.1 4.5v-14.1l6.3 12.7q-2.7 1.4-7 1.7a90 90 0 0 1-16.1 0m0 0"/><path fill="#111" d="M21 83.3a10 10 0 0 1 .7-7.5q1.9-3.8 3.8-6.5 3.7-5.6 9.4-9.4 1.5-1.5 2.3-1.9a58 58 0 0 1 16-8 31 31 0 0 1 17.2-.3q7.5 1.9 13.2 6.2T92 68q1.1 3-.4 5.6-1.5 2.7-3.7 4.5a53 53 0 0 1-20 9 19 19 0 0 1-9.1 5.6 38 38 0 0 1-11 1.7 52 52 0 0 1-17.3-3q-2.7-.9-5.7-3a10 10 0 0 1-3.8-5m25.2 9q8.4 0 11-1.6l2.3-1.7q-3.4.8-7.6 1.1t-10.6-.7q-8.2-2-11.1-7.6a14 14 0 0 1-.2-12q-2.7 3-4.9 7-1 2.8-1.1 4.8 0 2 2.2 4 3.9 3 7.2 4.1 5.6 2 12.8 2.7m39.3 188.8q-2.7 4.5-8 6.5.5 1.8-.3 4-.7 2-3.4 3.1a25 25 0 0 1-27.6-5l-.7-1q-2.7-1.2-5.7-3.4-6-5.7-7.3-13.6-1.4-8-2.5-15.9-2.6-21-4-42-1.2-21-.9-42.1V151q0-10.5 1.1-20.6.8-5.3 2.7-10.4 1.8-5 5.3-8.5l3-3.7 10.7-6.7q6.7-3.9 13-4.5 6.5-.6 9.5 7 1.9-.4 3.8.8 1.9 1.1 2.2 3.7 0 10.5-.3 20.8a565 565 0 0 0 0 41.3l1 25.3q0 2.6.5 5.1.3-.3 1 3l.9 6.7q.4 3.1.7 3.2a1868 1868 0 0 1-.5-63.5q0-16.6.9-29.8 0-.7 1.3-1 1.3 0 1.3.3-1 40.4 1.2 80.6t7.5 80.6q.4 2.6-2.6 2.8t-3.8-2.5M43.6 127a100 100 0 0 0-4.7 27l-1.3 27.4v4.5l3 27.2h1.1q0-12.8-.2-25.5a579 579 0 0 1 1.1-45.3q1-10 4-19h-.4q-2.6 1.9-2.6 3.7m213.7 175.3q-3.4 2.3-7.6 0-7.5-3.4-10.2-11.1-2.6-7.8-4.1-15l-2.3-12.8L167.4 146l-3-4.2-3-4.1q.4 19.3.2 38.5l-.2 38.5q.7 11.3 1 22.7a1370 1370 0 0 0 1.3 36.4 41 41 0 0 1-1.7 14.5q-2.2 6.4-10 7.6a17 17 0 0 1-9.3 7.7q-5.9 2.1-12.3.2-6-1.5-10.5-7.2-1.5-23.7-2.5-47.5a6061 6061 0 0 1-2.8-86.3q-.4-19.5-1.1-38.7-.5-12.4-.6-25-.2-12.3.6-24.5 3.8-3 7.1-3.4 0-4.5 3-8.7 4.6-5.6 10.2-5.4 5.7.2 11.7 4.1 6 4 11 9.1a115 115 0 0 1 7.5 8.5q9.9 12.8 18 26.2t15.6 27.4a629 629 0 0 1 24.2 45.3q.8 1.5.8 3.8l6 11.7q-1.5-14.4-4.2-29l-9-49.5q-2-10.2-5-20.4l-2.8-10.8q-1.2-5.5 1.7-11.1 2.7-4.5 6.5-6.8 0-.4.2-.4l.1-.4a11 11 0 0 1 10.4-6.4q7 0 12 3.4 1 .4 2.6 1.9 1 5.2 2.6 10.7l3 10.8q4.5 16.3 7.6 33.4 3 17.3 5.6 34.2 5.7 34.3 9 69.4 3.5 35.2 5.8 69.9-3 4.2-7.6 7.2t-9.8 3m21.1-14q-.7 0-1.5 1.2-3.8-54-10.4-107.8T248.2 75.4q-.7-2.3 1.2-4.2 1.5-1.8 4.1-1.7 2.7.3 3 3.2 10.3 49.2 16 99.2 6 50 5.6 100.2.3 1.9.5 7t-.2 9.2m-165.3-27.5q-1.5-20-2.3-41.8l-1.5-42q-.8-20.1-1.1-40.5l-.8-40.7a45 45 0 0 1 3-19.7q-.3 9-.2 18.2l.6 18 1 39.4.9 39.6 3.4 85-1-1.8q-1-1.6-2-13.7m42.3-18.5-1.2 1h-.2l-.5.5-.4 22.6q0 4.5 1.7 10.8 1.6 6.2-.2 13.4 3.8-6.5 3-12.9l-.6-10.9q0-5.7-.9-11.3a113 113 0 0 0-.7-13.2m322 44.1q-.3.5-.6-.3 0-.8.2-1.2 4.5-1.8 5.3-6.8.8-4.8-.7-11a104 104 0 0 0-6.8-19.6 233 233 0 0 0-49.9-81.5q4.2 5.2 10.8 15.7a523 523 0 0 1 27.4 48.7q6.3 13 10.7 24.1a63 63 0 0 1 4.7 17.6q.8 7.5-4.1 13.8a16 16 0 0 1-13.6 6.2q-12 0-17-10.6a22 22 0 0 1-2.6-10.5q-10.5-21.2-25-40.4a474 474 0 0 0-29.8-36.3q-6.8-7.5-13.8-14.9-6.9-7.5-15.3-13.4l-6 2.3-9 3.7q3 31.8 6.7 63 .8 6.1 2.1 12.4l2.5 12.6q1.5 5.3 3.6 11.5 2 6.3 3.2 12.7.7 2.2.1 4.7-.5 2.4-2.4 4.3-14.4 12-31 6-6.3.9-12.4-2.8a23 23 0 0 1-9-9.6 53 53 0 0 1-4.2-16.4l-1.5-16.8-4.4-38.5a1318 1318 0 0 1-6-77l-2-49.3-.1-10q-.5-5.2 1-10.8 1.3-5.4 7.3-7l1-2 .9-2.1q3.8-6.8 10.4-8.5t13 1 9.8 8.4q3.4 6 .8 13.4-1.5 5.7-1.7 12.3t-.6 13l-1.1 34q1.8-1.9 3-2.3a819 819 0 0 1 6.2-48l.2.1v2.6l1.5 41.6q23.4-10.2 49.7-23a735 735 0 0 0 58.5-32q5.8-3.6 11.5-1.7 4.5 1.2 6.8 5T468 81l1.1-1q3-2.4 5.9 0 2.7 2.1.9 5.6a90 90 0 0 1-27 31 364 364 0 0 1-35.3 22.6l-9.8 5.3q1.5 1.1 2.6 2.2l2.7 2.3q-.5-2 1.9-3.4 2.2-1.5 3.7.4a234 234 0 0 1 62.7 97.2q3.8 10.8 6.4 21.7 1.2 5.7.8 12.7t-7.2 8.8m226.2-23.8q.7 8-.2 16a39 39 0 0 1-5.1 15 24 24 0 0 1-13 10.4q-9 3.2-16.1-4-6.5-1.5-11-6.6t-4.5-11.9q-1-48.3-13.2-96.3L630 137.7q-6.7 19.6-13.2 42-6.4 22.5-10.5 38.4a1486 1486 0 0 0-13.3 60q-.3 1.2-1 1-.5-.3-.5-.6-.3 2.6-1.1 5.3l-1.5 5.7a34 34 0 0 1-3.6 6.7q-2.1 3-6.6 4.2-3.5.8-5-.4-3.4 0-5.2-1.5-2.3 1.5-3.4-1.1-2.6-4.1-4-8.3t-2.4-8.7l-16.3-57.8a1015 1015 0 0 1-9.8-37.7l-3-9.5q1.2 23.8 2 48.4 1 24.4 1.4 48.3.4 8.3-.6 17.2t-10 13q-4.1 1.9-6.4-.8-.8-.7-1.1-1.5-8 2.8-13.2-2.6a26 26 0 0 1-6.5-12.9q-1.5-7.5-2.2-14.3a507 507 0 0 1-5-65q-1-33.5-1-67.1l-.6-32.9q-.2-16.5 2.8-32.8.4-1.5 2.3-1.5t2.2 1.5q1.9 11.3 2.3 24l.8 24.7q.7 0 1 4.1.5 4.2.8 4.2v-8.7l-.1-13.4q-.3-6.6-.2-13.4-.4-5.7-.2-11.7.1-6 2.8-11.3 0-6.5 6.4-10.2a22 22 0 0 1 19-2.7q11.2 2.3 15.4 13.2 3.3 4.2 4.1 10.2.8 6.8 2 13.8l2.2 14.2q5 29 11 60.8 6 31.6 12.4 60.4l7.2-31.8q3.3-15.8 7.2-31.7 5.2-24.4 10.9-48.9 5.7-24.3 9-48.9.9-3 3.5-5.4a10 10 0 0 1 5.6-2.9 21 21 0 0 1 16.6 1.5q4.2-3 9.5-3t8.7 3.8a72 72 0 0 1 14 19.6 105 105 0 0 1 7.9 22.7q3 12.8 5.4 25.5a1563 1563 0 0 1 6.4 35.3q1 4.8 1.4 9.8a191 191 0 0 1 3.7 16.6l3.6 18.5a1487 1487 0 0 0 7.2 35q1.7 8 2.5 16.3M546.9 160l1.9 4.7q.7 2 2.2 4l-12-66.1a102 102 0 0 0-3-17.4 17 17 0 0 1-5.4 2.3q0 .8-.3 1.5a5859 5859 0 0 1 16.6 71m57.4 57.3q5.3-21.4 11.3-43 6-21.5 13.2-42.7l-.8-3.7q-.4-2-1-3.8a876 876 0 0 0-21.2 75.9q-.4 4.1-1.3 8.5l-1.8 8.5q.5.3 1.2.3ZM836 289.8q-2.1-.7-5-7.9-3-7.2-6-17.7-3.3-10.6-6.1-22l-5.1-20.3q-2.3-9-3-13.2l-29.5.3a553 553 0 0 0-7.1 33.8 379 379 0 0 0-4.6 34.2q0 3.4-3.2 3.4-3.1 0-2.8-3.4 1.5-17 4.3-34.2 3-17.1 8.1-33.8h-3.4q-1.9 6.8-3.7 16.5l-6.5 34.3-1 6.2-2.4 17q-1 13-8.6 18.5-7.5 5.7-16.6 4.6a23 23 0 0 1-15.3-8.7q-6.2-7.6-4.4-20.8 2.3-16.5 5.3-33.2 3-16.5 7.2-32.9a76 76 0 0 1-10.2.8q.7-2 .4-3.4-9-2.3-13.3-9.8a24 24 0 0 1-2.2-16.8 31 31 0 0 1 10.6-17 50 50 0 0 1 25.6-10.4q4.2-18.9 9.1-37.2a290 290 0 0 1 19.6-52q4.2-9 10.4-15.6t15.7-6.6q4.9-.3 9.8 2.7t7.2 7.5a20 20 0 0 1 13.7 5.9q5.5 5.5 6.3 14.5l1.9 22.9 2.2 22.4q.4.4.8.4.4-9.8 1-19.4.5-9.7 1.6-19.1l.6 6.8 1.3 21.3 1.5 26q.8 13.2 2 21.8 10.9 1.1 16.9 7.3 6 6.3 7.6 14.4 1.5 8-1.6 16-3 8-11 12.9 4 16.6 8 37.5 4.3 21 6.4 38 1.5 12.8-2 19.4-3.6 6.6-9.5 7.4-5.8.8-11.7-4.2t-9.2-15M780.3 160q4.1-.8 10.8-1 6.6-.2 10.3-.6-.7-4.8-1.7-14-.9-9-2.2-19.4-1.5-10.4-3.2-19l-8 28.3q-3.3 12.4-6 25.7m0 0"/><path fill="#111" d="M1091.3 266.8a44 44 0 0 1-18 20.4q-12.6 8-25.4 11-14.7 3.4-29.5 3.1-14.7 0-29.8-2.4-14.7-2.2-28-5.7-2.5 5.6-7.1 6.8-2.6.4-5.3-.7a8 8 0 0 1-6 2.6q-3.8.4-7.4-.4-3.6-.7-6.6-2.6-6-4.2-8.7-9a46 46 0 0 1-4.1-11.8q-9-3.7-18-7.7-8.8-4-17.5-8.5-8.3-4.5-10.6-14a22 22 0 0 1 2.6-17.3q4.6-8 13.8-10.4a22 22 0 0 1 17.2 2l1.5 1.2q-.3-3.4-1.1-6.6l-1.5-6.6q-6-31.8-12.7-63.3l-13-62.8-.8-2.3-.7-1.9q-1.5-5.7 1.9-10 3.3-4.4 8.3-5a28 28 0 0 1 5.3-.8q1.8-5 7.1-7.8 5.4-2.8 11.7-3.8 6.4-1 10.6-.5 18.9 1.5 33.4 12 14.6 10.7 27.8 23.5 14.7 13.9 29.2 28.7t28.2 30.2a192 192 0 0 1 18.5 21.5q7 9.4 13.7 19.2 6.7 9.9 12 20.8 6.8 13.2 11 28.7a44 44 0 0 1-2 30.2M887.8 111.6q-.4-1.1-2.3-3.6-1.9-2.4-1 1.7 4.9 19.7 9.1 39.1 4.4 19.5 9.3 39l10.2 40.5q1.9.7 3.6 1.9l3.2 1.9q-1.5-5-3.2-9.7t-2.9-9.6l-4.1-15.6-5.7-23a1387 1387 0 0 0-16.2-62.6m160 115.2-8.4-13q-4.5-6.7-8.9-12.7a268 268 0 0 0-38.5-41.9 255 255 0 0 0-47.2-34.4l-7.2-3.7a1814 1814 0 0 1 17.4 94.4l6 34q8.7 3 17.8 5.8a181 181 0 0 0 31 7q4.8.8 12 1.1 6.9 0 11.7-.4a68 68 0 0 0 19.8-4.7q4-1.7 7-4.3-.4-3.9-1.9-7-1.4-3.3-3.4-6.6a111 111 0 0 0-7.1-13.6m50.6-125q18.8-9.7 39.2-16.6 20.4-6.8 40.8-12l8.7-2.3 23.4-4.4a214 214 0 0 1 28.9-3.2h5a2502 2502 0 0 0-44.5 11 1315 1315 0 0 0-38.3 8.8 464 464 0 0 0-50.6 15.5q-6.1 2.4-12.6 5.5-1.5-.8 0-2.3m211.8 153.7q-.8 3.4-3.8 3.7a570 570 0 0 0-41.7 9.3 484 484 0 0 0-41 12.6l-19 6.9q-9.7 3.3-19.1 7.5h-.4l-1.1.6q-.7.1-1.5.5-3 1.6-6.3 2.7-3.2 1-6.2 2.6l-.4.4a45 45 0 0 1-8.5 3.8q-6.2 2.2-11.7 3.7l-5.5 1.5-1.3.2q-1.4.3-2.4.2-4.5.8-9 0-4.7-.8-6.9-5.6a8 8 0 0 1-.4-5.3q-7-3-11-10.4a17 17 0 0 1-1.4-14.5q-1.5-9.9-2.5-19.9l-1.7-19.8-4.5-45.3-4.5-43a23 23 0 0 1-6-18.5q1-10.5 9.4-17.8l.7-1.5.8-1.5a244 244 0 0 1 24.1-9q19-6.4 38-11.2t38.3-8.5q15-3.4 29.8-7.3l29.5-7.8q1.8.4 4 .6 2 .1 3.5 1l6 2.2 3 2.4 3.1 2.5q2 6 2.7 11.9.7 5.8-.4 11.5l-18.9 5.7a511 511 0 0 1-25.7 7.5q-1.5.8-2.2.8-7.2 1.8-16.8 4.7l-35.7 10.8a92 92 0 0 0-8.3 3 505 505 0 0 0-35.9 13.6l-.7.7.9 6.3 1.7 13 31.5-13.4q15.7-6.6 32-12.7a1312 1312 0 0 0 36.5-9.8l5-1.1q3.3-.7 6.6-1 3.1-.1 6.6-.5 7.2-.5 13.6 1a15 15 0 0 1 10.2 8q.8.8.9 1.5l.6 1.5q.7 1.2 1 2.3l.9 2.3.7.4q5.3 2.6 6.4 9.4 1.2 5.3-1.7 10.8a18 18 0 0 1-8 8q-6.1 2.7-12.4 3.3-6.1.6-12.6 2l-13.8 2.5q-6.9 1.4-13.8 3.2-13.5 3.8-27 8.1A307 307 0 0 0 1164 206q-7.8 3.8-15.7 8l2.3 24.5v1.5l1.1-.8q6.4-3 12.7-5.4l12.2-5.1 32.1-12.5q4.2-1.9 8.5-3.4l22-8.1 13.7-4.7 14.7-4.6q3-.8 6-2 3-1.4 6-2.1 11.1-2.3 18 1.9t11.2 12q4 8 6.2 17.4 2.1 9.4 2.4 17.4.4 4.9-1.7 8.9a20 20 0 0 1-5.4 6.6m-91.4-80-17.5 5.2q-9 2.7-17.6 5.7-5.7 1.4-11.2 3.2l-10.7 3.2q-1.2 6.4-6 10.6 14-7.1 28.5-12.9l34.9-14ZM1135.5 306a76 76 0 0 0 15.4-.4q.9 0 1.2-.4l8.7-4.5 17.3-9v-.8l-10.2 3.7-10.5 3.8-10.8 4q-5.5 2-11.1 3.6m0 0"/></g></svg>