<svg xmlns="http://www.w3.org/2000/svg" width="1275" height="146" viewBox="84 316 1275 146"><path fill="#f3f0eb" d="M86 460.5V317.9h38v142.6Zm211.9-44v-98.6h40.5v142.6h-50L198 361.9v98.6h-40.3V317.9h50Zm146.4-20.2-31 26.1v38.1H373V317.9h40.4v60.5l75-60.5h51l-67.8 55.8 72.6 86.8h-45.3ZM693 460.5h-33l-52.4-99.8v99.8h-40.3V317.9h54.6l54.8 102.3 54.6-102.3h54.6v142.6h-40.3v-99.8Zm287.4 0H940L928 432h-66.4l-12 28.5h-40.4l57-142.6h57.1Zm-64.2-57-21.4-61.8-23.8 61.8Zm187.2-85.6q17.8 0 31 3.3 13.5 3.4 22.4 11.3 9 7.8 13.4 20.5 4.5 12.8 4.5 31.5v9.4q0 18.8-4.5 31.5a48 48 0 0 1-35.7 31.7 128 128 0 0 1-31.1 3.4h-99.8V317.9Zm33.2 66.6q0-11.8-1.6-19.3a25 25 0 0 0-5.4-11.6q-3.8-4-10.2-5.7-6.4-1.5-16-1.5h-59.5V432h59.5q9.4 0 15.8-1.5t10.3-5.8q3.9-4 5.5-11.6 1.5-7.4 1.6-19.2Zm108.6 14.3V432H1357v28.5h-152V317.9h152v28.5h-111.8v23.8h102.3v28.6Zm0 0"/></svg>