<svg xmlns="http://www.w3.org/2000/svg" xmlns:xlink="http://www.w3.org/1999/xlink" width="1920" zoomAndPan="magnify" viewBox="0 0 1440 809.999993" height="1080" preserveAspectRatio="xMidYMid meet" version="1.0"><defs><g/></defs><g fill="#f3f0eb" fill-opacity="1"><g transform="translate(74.775427, 460.499997)"><g><path d="M 11.203125 0 L 11.203125 -142.609375 L 49.296875 -142.609375 L 49.296875 0 Z M 11.203125 0 "/></g></g></g><g fill="#f3f0eb" fill-opacity="1"><g transform="translate(145.469916, 460.499997)"><g><path d="M 152.390625 -44 L 152.390625 -142.609375 L 192.9375 -142.609375 L 192.9375 0 L 143.015625 0 L 52.5625 -98.609375 L 52.5625 0 L 12.21875 0 L 12.21875 -142.609375 L 62.140625 -142.609375 Z M 152.390625 -44 "/></g></g></g><g fill="#f3f0eb" fill-opacity="1"><g transform="translate(360.812462, 460.499997)"><g><path d="M 83.53125 -64.171875 L 52.5625 -38.09375 L 52.5625 0 L 12.21875 0 L 12.21875 -142.609375 L 52.5625 -142.609375 L 52.5625 -82.109375 L 127.53125 -142.609375 L 178.671875 -142.609375 L 110.828125 -86.796875 L 183.359375 0 L 138.125 0 Z M 83.53125 -64.171875 "/></g></g></g><g fill="#f3f0eb" fill-opacity="1"><g transform="translate(554.967142, 460.499997)"><g><path d="M 138.125 0 L 104.921875 0 L 52.5625 -99.828125 L 52.5625 0 L 12.21875 0 L 12.21875 -142.609375 L 66.828125 -142.609375 L 121.625 -40.34375 L 176.234375 -142.609375 L 230.828125 -142.609375 L 230.828125 0 L 190.484375 0 L 190.484375 -99.828125 Z M 138.125 0 "/></g></g></g><g fill="#f3f0eb" fill-opacity="1"><g transform="translate(808.407115, 460.499997)"><g><path d="M 171.953125 0 L 131.609375 0 L 119.59375 -28.515625 L 53.171875 -28.515625 L 41.15625 0 L 0.8125 0 L 57.859375 -142.609375 L 114.90625 -142.609375 Z M 107.78125 -57.046875 L 86.390625 -118.78125 L 62.546875 -57.046875 Z M 107.78125 -57.046875 "/></g></g></g><g fill="#f3f0eb" fill-opacity="1"><g transform="translate(991.35666, 460.499997)"><g><path d="M 112.046875 -142.609375 C 123.867188 -142.609375 134.226562 -141.488281 143.125 -139.25 C 152.019531 -137.007812 159.453125 -133.273438 165.421875 -128.046875 C 171.398438 -122.816406 175.882812 -115.957031 178.875 -107.46875 C 181.863281 -98.976562 183.359375 -88.488281 183.359375 -76 L 183.359375 -66.625 C 183.359375 -54.125 181.863281 -43.628906 178.875 -35.140625 C 175.882812 -26.648438 171.398438 -19.789062 165.421875 -14.5625 C 159.453125 -9.332031 152.019531 -5.597656 143.125 -3.359375 C 134.226562 -1.117188 123.867188 0 112.046875 0 L 12.21875 0 L 12.21875 -142.609375 Z M 145.265625 -76 C 145.265625 -83.875 144.71875 -90.289062 143.625 -95.25 C 142.539062 -100.207031 140.742188 -104.078125 138.234375 -106.859375 C 135.722656 -109.640625 132.328125 -111.539062 128.046875 -112.5625 C 123.765625 -113.582031 118.429688 -114.09375 112.046875 -114.09375 L 52.5625 -114.09375 L 52.5625 -28.515625 L 112.046875 -28.515625 C 118.296875 -28.515625 123.5625 -29.023438 127.84375 -30.046875 C 132.125 -31.066406 135.550781 -32.96875 138.125 -35.75 C 140.707031 -38.539062 142.539062 -42.410156 143.625 -47.359375 C 144.71875 -52.316406 145.265625 -58.738281 145.265625 -66.625 Z M 145.265625 -76 "/></g></g></g><g fill="#f3f0eb" fill-opacity="1"><g transform="translate(1192.641838, 460.499997)"><g><path d="M 52.5625 -61.734375 L 52.5625 -28.515625 L 164.40625 -28.515625 L 164.40625 0 L 12.21875 0 L 12.21875 -142.609375 L 164.40625 -142.609375 L 164.40625 -114.09375 L 52.5625 -114.09375 L 52.5625 -90.25 L 154.84375 -90.25 L 154.84375 -61.734375 Z M 52.5625 -61.734375 "/></g></g></g></svg>